<svg viewBox="0 0 400 300" xmlns="http://www.w3.org/2000/svg" role="img" aria-label="Alignment Researcher — a calm rabbit at a glowing alignment console with a guardrail wall behind, mending a golden Valuation heart">
  <defs>
    <radialGradient id="ar-bg" cx="50%" cy="28%" r="92%">
      <stop offset="0%" stop-color="#2A2150"/><stop offset="55%" stop-color="#1A1430"/><stop offset="100%" stop-color="#0E0A1C"/>
    </radialGradient>
    <linearGradient id="ar-fur" x1="0" y1="0" x2="0" y2="1">
      <stop offset="0%" stop-color="#F0E6D2"/><stop offset="100%" stop-color="#C9B79A"/>
    </linearGradient>
    <linearGradient id="ar-console" x1="0" y1="0" x2="0" y2="1">
      <stop offset="0%" stop-color="#2A2150"/><stop offset="100%" stop-color="#140F28"/>
    </linearGradient>
    <radialGradient id="ar-heart" cx="40%" cy="35%" r="70%">
      <stop offset="0%" stop-color="#FFE9A8"/><stop offset="60%" stop-color="#F4C04C"/><stop offset="100%" stop-color="#A8780F"/>
    </radialGradient>
    <radialGradient id="ar-glow" cx="50%" cy="50%" r="50%">
      <stop offset="0%" stop-color="#CDB8FF" stop-opacity=".6"/><stop offset="100%" stop-color="#A07CFF" stop-opacity="0"/>
    </radialGradient>
    <filter id="ar-soft" x="-40%" y="-40%" width="180%" height="180%"><feGaussianBlur stdDeviation="8"/></filter>
    <filter id="ar-grain"><feTurbulence type="fractalNoise" baseFrequency="0.9" numOctaves="2" stitchTiles="stitch"/><feColorMatrix type="matrix" values="0 0 0 0 0  0 0 0 0 0  0 0 0 0 0  0 0 0 .5 0"/></filter>
    <radialGradient id="ar-vig" cx="50%" cy="46%" r="72%"><stop offset="60%" stop-color="#000" stop-opacity="0"/><stop offset="100%" stop-color="#000" stop-opacity=".55"/></radialGradient>
  </defs>

  <rect width="400" height="300" fill="url(#ar-bg)"/>

  <g filter="url(#ar-soft)" opacity=".6">
    <ellipse cx="220" cy="110" rx="150" ry="84" fill="#A07CFF" opacity=".17"/>
    <ellipse cx="120" cy="220" rx="110" ry="56" fill="#3E3070" opacity=".5"/>
  </g>

  <!-- guardrail wall behind (rounded padded segments) -->
  <g transform="translate(0 96)" opacity=".85">
    <rect x="24" y="0" width="352" height="46" rx="16" fill="#3E3070"/>
    <rect x="24" y="0" width="352" height="14" rx="7" fill="#5A47A0" opacity=".6"/>
    <g stroke="#241C3A" stroke-width="3" opacity=".6"><line x1="120" y1="6" x2="120" y2="40"/><line x1="216" y1="6" x2="216" y2="40"/><line x1="300" y1="6" x2="300" y2="40"/></g>
  </g>

  <!-- alignment console -->
  <g transform="translate(232 150)">
    <rect x="0" y="20" width="120" height="84" rx="8" fill="url(#ar-console)" stroke="#A07CFF" stroke-width="1.4"/>
    <!-- aligned converging arrows on screen -->
    <g stroke="#CDB8FF" stroke-width="2.4" fill="none" opacity=".9" stroke-linecap="round">
      <path d="M16 40 l24 18"/><path d="M16 86 l24 -18"/><path d="M104 40 l-24 18"/><path d="M104 86 l-24 -18"/>
      <line x1="44" y1="62" x2="76" y2="62"/>
    </g>
    <circle cx="60" cy="62" r="6" fill="#CDB8FF"/>
    <text x="60" y="118" font-family="JetBrains Mono,monospace" font-size="8" fill="#9FB3C8" text-anchor="middle">ALIGNED ✓</text>
  </g>

  <!-- the golden Valuation heart being mended (+3) -->
  <g transform="translate(150 80)">
    <circle cx="0" cy="0" r="36" fill="url(#ar-glow)"/>
    <path d="M0 22 C-26 4 -22 -18 -6 -18 C0 -18 0 -12 0 -10 C0 -12 0 -18 6 -18 C22 -18 26 4 0 22 Z" fill="url(#ar-heart)" stroke="#FFE9A8" stroke-width="1.2"/>
    <!-- mend stitch on the heart -->
    <path d="M-2 -8 l4 4 l-4 4 l4 4 l-4 4" fill="none" stroke="#1A1430" stroke-width="1.6" opacity=".6"/>
    <text x="0" y="40" font-family="JetBrains Mono,monospace" font-size="12" fill="#F4C04C" text-anchor="middle" font-weight="700">+3</text>
  </g>

  <!-- the researcher rabbit at the console -->
  <g>
    <path d="M96 150 q-10 -54 4 -68 q14 14 8 64 z" fill="url(#ar-fur)"/>
    <path d="M120 148 q12 -52 -2 -66 q-14 14 -10 62 z" fill="url(#ar-fur)"/>
    <ellipse cx="112" cy="220" rx="40" ry="46" fill="url(#ar-fur)"/>
    <!-- lab coat -->
    <path d="M84 196 q28 16 56 0 l-4 60 q-24 10 -48 0 z" fill="#EDE7F5"/>
    <line x1="112" y1="196" x2="110" y2="254" stroke="#B9AEDB" stroke-width="2"/>
    <circle cx="124" cy="214" r="2" fill="#A07CFF"/><circle cx="122" cy="228" r="2" fill="#A07CFF"/>
    <!-- head + round glasses -->
    <circle cx="112" cy="166" r="30" fill="url(#ar-fur)"/>
    <circle cx="103" cy="164" r="8" fill="none" stroke="#3E3070" stroke-width="1.8"/><circle cx="121" cy="164" r="8" fill="none" stroke="#3E3070" stroke-width="1.8"/>
    <line x1="111" y1="164" x2="113" y2="164" stroke="#3E3070" stroke-width="1.8"/>
    <circle cx="103" cy="164" r="2.4" fill="#2A2150"/><circle cx="121" cy="164" r="2.4" fill="#2A2150"/>
    <path d="M106 178 q6 3 12 0" fill="none" stroke="#7a5f7a" stroke-width="2" stroke-linecap="round"/>
    <!-- arm reaching to console -->
    <path d="M140 200 L208 186 L210 196 L144 212 Z" fill="url(#ar-fur)"/>
    <!-- rim light -->
    <path d="M96 150 q-10 -54 4 -68" fill="none" stroke="#FFF6E0" stroke-width="1.6" opacity=".6" stroke-linecap="round"/>
    <path d="M82 166 a30 30 0 0 1 14 -24" fill="none" stroke="#FFF6E0" stroke-width="1.5" opacity=".5"/>
  </g>

  <rect width="400" height="300" filter="url(#ar-grain)" opacity=".05"/>
  <rect width="400" height="300" fill="url(#ar-vig)"/>
</svg>
