<svg viewBox="0 0 400 300" xmlns="http://www.w3.org/2000/svg" role="img" aria-label="Closed Beta Brigade — a squad of sleek stealth hype-bots in formation, the front one solid and the rest ghosted by Stealth Mode">
  <defs>
    <radialGradient id="cbb-bg" cx="50%" cy="30%" r="90%">
      <stop offset="0%" stop-color="#143427"/>
      <stop offset="55%" stop-color="#0C1812"/>
      <stop offset="100%" stop-color="#060B09"/>
    </radialGradient>
    <linearGradient id="cbb-chrome" x1="0" y1="0" x2="1" y2="1">
      <stop offset="0%" stop-color="#DFF7EC"/>
      <stop offset="45%" stop-color="#79E2BB"/>
      <stop offset="100%" stop-color="#0C5C40"/>
    </linearGradient>
    <linearGradient id="cbb-scan" x1="0" y1="0" x2="1" y2="0">
      <stop offset="0%" stop-color="#7FF5C0" stop-opacity="0"/>
      <stop offset="50%" stop-color="#7FF5C0" stop-opacity=".4"/>
      <stop offset="100%" stop-color="#7FF5C0" stop-opacity="0"/>
    </linearGradient>
    <filter id="cbb-soft" x="-40%" y="-40%" width="180%" height="180%"><feGaussianBlur stdDeviation="8"/></filter>
    <filter id="cbb-ghost" x="-20%" y="-20%" width="140%" height="140%"><feGaussianBlur stdDeviation="1.6"/></filter>
    <filter id="cbb-grain"><feTurbulence type="fractalNoise" baseFrequency="0.9" numOctaves="2" stitchTiles="stitch"/><feColorMatrix type="matrix" values="0 0 0 0 0  0 0 0 0 0  0 0 0 0 0  0 0 0 .5 0"/></filter>
    <radialGradient id="cbb-vig" cx="50%" cy="46%" r="72%"><stop offset="60%" stop-color="#000" stop-opacity="0"/><stop offset="100%" stop-color="#000" stop-opacity=".58"/></radialGradient>
    <!-- a single stealth-bot silhouette reused at three depths -->
    <g id="cbb-bot">
      <path d="M0 80 L-16 26 L0 -6 L16 26 Z"/>
      <path d="M0 -6 L16 26 L0 80 Z" fill="#0C5C40" fill-opacity=".4"/>
      <path d="M0 -20 L12 0 L0 14 L-12 0 Z"/>
      <circle cx="0" cy="-2" r="4" fill="#06150F"/>
      <circle cx="0" cy="-2" r="2.4" fill="#7FF5C0"/>
    </g>
  </defs>

  <rect width="400" height="300" fill="url(#cbb-bg)"/>

  <g filter="url(#cbb-soft)" opacity=".55">
    <ellipse cx="200" cy="120" rx="150" ry="80" fill="#19C37D" opacity=".14"/>
    <ellipse cx="120" cy="240" rx="120" ry="50" fill="#0E5E48" opacity=".4"/>
  </g>

  <!-- back racks -->
  <g opacity=".75"><rect x="0" y="214" width="400" height="86" fill="#0A1510"/>
    <g fill="#0E2419"><rect x="14" y="176" width="54" height="50" rx="4"/><rect x="332" y="172" width="56" height="54" rx="4"/></g>
  </g>

  <!-- formation ground -->
  <ellipse cx="200" cy="262" rx="180" ry="18" fill="#0E2419" opacity=".7"/>

  <!-- ghosted rear bots (Stealth Mode) -->
  <g filter="url(#cbb-ghost)">
    <g transform="translate(120 150) scale(.78)" fill="url(#cbb-chrome)" opacity=".22"><use href="#cbb-bot"/></g>
    <g transform="translate(286 150) scale(.78)" fill="url(#cbb-chrome)" opacity=".22"><use href="#cbb-bot"/></g>
    <g transform="translate(160 138) scale(.62)" fill="url(#cbb-chrome)" opacity=".14"><use href="#cbb-bot"/></g>
    <g transform="translate(248 138) scale(.62)" fill="url(#cbb-chrome)" opacity=".14"><use href="#cbb-bot"/></g>
  </g>
  <!-- their stealth dashed outlines -->
  <g fill="none" stroke="#7FF5C0" stroke-width="1" stroke-dasharray="3 4" opacity=".35">
    <path d="M120 220 L104 166 L120 134 L136 166 Z"/>
    <path d="M286 220 L270 166 L286 134 L302 166 Z"/>
  </g>

  <!-- FRONT bot: solid, sharp, leading the brigade -->
  <g transform="translate(200 168) scale(1.05)">
    <g fill="url(#cbb-chrome)"><use href="#cbb-bot"/></g>
    <!-- glass chest with BETA badge -->
    <rect x="-13" y="20" width="26" height="34" rx="4" fill="#06150F" stroke="#19C37D" stroke-width="1.2"/>
    <text x="0" y="40" font-family="JetBrains Mono, monospace" font-size="9" fill="#7FF5C0" text-anchor="middle" font-weight="700">BETA</text>
    <!-- scanline of stealth scan -->
    <rect x="-16" y="30" width="32" height="3" fill="url(#cbb-scan)"/>
    <!-- rim light -->
    <path d="M0 80 L-16 26 L0 -6" fill="none" stroke="#FFF6E0" stroke-width="1.8" opacity=".8" stroke-linecap="round"/>
    <path d="M-12 0 L0 -20" fill="none" stroke="#FFF6E0" stroke-width="1.4" opacity=".7" stroke-linecap="round"/>
  </g>

  <!-- "+1 to face" extra-damage glyph -->
  <g transform="translate(330 70)">
    <circle r="15" fill="#06150F" stroke="#7FF5C0" stroke-width="1.2"/>
    <text y="5" font-family="JetBrains Mono, monospace" font-size="13" fill="#FF5C5C" text-anchor="middle" font-weight="700">+1</text>
  </g>

  <rect width="400" height="300" filter="url(#cbb-grain)" opacity=".05"/>
  <rect width="400" height="300" fill="url(#cbb-vig)"/>
</svg>
