<svg viewBox="0 0 400 300" xmlns="http://www.w3.org/2000/svg" role="img" aria-label="Distil-Bot V3 — a scrappy origami paper-bot compressing a big model down into a tiny cheap clone, a minus-one cost spark, Ship It">
  <defs>
    <radialGradient id="db-bg" cx="46%" cy="28%" r="92%">
      <stop offset="0%" stop-color="#0F3E40"/><stop offset="55%" stop-color="#0A2A2E"/><stop offset="100%" stop-color="#05181A"/>
    </radialGradient>
    <linearGradient id="db-paper" x1="0" y1="0" x2="0" y2="1">
      <stop offset="0%" stop-color="#FFD9A8"/><stop offset="100%" stop-color="#FF8A3D"/>
    </linearGradient>
    <linearGradient id="db-paper2" x1="0" y1="0" x2="0" y2="1">
      <stop offset="0%" stop-color="#FFA85C"/><stop offset="100%" stop-color="#C75A1E"/>
    </linearGradient>
    <radialGradient id="db-glow" cx="50%" cy="50%" r="50%">
      <stop offset="0%" stop-color="#FF8A3D" stop-opacity=".4"/><stop offset="100%" stop-color="#FF8A3D" stop-opacity="0"/>
    </radialGradient>
    <filter id="db-soft" x="-40%" y="-40%" width="180%" height="180%"><feGaussianBlur stdDeviation="8"/></filter>
    <filter id="db-grain"><feTurbulence type="fractalNoise" baseFrequency="0.9" numOctaves="2" stitchTiles="stitch"/><feColorMatrix type="matrix" values="0 0 0 0 0  0 0 0 0 0  0 0 0 0 0  0 0 0 .5 0"/></filter>
    <radialGradient id="db-vig" cx="50%" cy="46%" r="72%"><stop offset="58%" stop-color="#000" stop-opacity="0"/><stop offset="100%" stop-color="#000" stop-opacity=".55"/></radialGradient>
  </defs>

  <rect width="400" height="300" fill="url(#db-bg)"/>
  <g filter="url(#db-soft)" opacity=".6"><ellipse cx="200" cy="120" rx="150" ry="90" fill="#FF8A3D" opacity=".14"/><ellipse cx="120" cy="230" rx="120" ry="60" fill="#0E5E63" opacity=".5"/></g>
  <g opacity=".7"><rect x="0" y="226" width="400" height="74" fill="#072024"/></g>
  <ellipse cx="200" cy="252" rx="160" ry="16" fill="#0C3438" opacity=".7"/>
  <circle cx="200" cy="140" r="100" fill="url(#db-glow)"/>

  <!-- the BIG model being distilled (left, larger, faded) -->
  <g transform="translate(96 150)" opacity=".7">
    <path d="M-40 90 L-28 -10 L0 -36 L28 -10 L40 90 Z" fill="#0E5E63"/>
    <path d="M0 -36 L28 -10 L40 90 L0 90 Z" fill="#0A3A3E"/>
    <circle cx="0" cy="-10" r="11" fill="#06181A"/><circle cx="0" cy="-10" r="5" fill="#39C9C0"/>
    <text x="0" y="40" font-family="JetBrains Mono,monospace" font-size="13" fill="#39C9C0" text-anchor="middle">175B</text>
  </g>

  <!-- compression / distill arrows -->
  <g stroke="#FF8A3D" stroke-width="2.4" fill="none" opacity=".85">
    <path d="M150 120 l28 14 l-28 14" stroke-linecap="round" stroke-linejoin="round"/>
    <path d="M168 110 l24 24 l-24 24" stroke-linecap="round" stroke-linejoin="round" opacity=".6"/>
  </g>

  <!-- the small distilled origami paper-bot (right) -->
  <g transform="translate(264 170)">
    <!-- folded origami body (angular paper planes) -->
    <path d="M-30 56 L-20 -8 L0 -26 L20 -8 L30 56 Z" fill="url(#db-paper)"/>
    <!-- fold creases -->
    <path d="M0 -26 L0 56 M-20 -8 L0 12 L20 -8 M-25 24 L0 36 L25 24" fill="none" stroke="#C75A1E" stroke-width="1.4" opacity=".7"/>
    <path d="M0 -26 L20 -8 L30 56 L0 56 Z" fill="url(#db-paper2)" opacity=".55"/>
    <!-- a little paper crane head -->
    <path d="M0 -26 L16 -34 L4 -18 Z" fill="url(#db-paper)"/>
    <circle cx="2" cy="-22" r="3" fill="#06181A"/>
    <!-- v3 tag -->
    <rect x="-14" y="14" width="28" height="18" rx="4" fill="#06181A" stroke="#FF8A3D" stroke-width="1"/>
    <text x="0" y="27" font-family="JetBrains Mono,monospace" font-size="9" fill="#FFD9A8" text-anchor="middle" font-weight="700">v3</text>
    <!-- ship-it speed lines -->
    <g stroke="#FFD9A8" stroke-width="2" opacity=".7"><line x1="34" y1="6" x2="56" y2="6"/><line x1="34" y1="18" x2="50" y2="18"/></g>
    <!-- rim light -->
    <path d="M-30 56 L-20 -8 L0 -26" fill="none" stroke="#FFF6E0" stroke-width="1.6" opacity=".6" stroke-linecap="round"/>
  </g>

  <!-- the −1 cost discount spark -->
  <g transform="translate(322 92)">
    <circle r="20" fill="url(#db-glow)"/>
    <circle r="15" fill="#06181A" stroke="#FF8A3D" stroke-width="1.4"/>
    <text y="5" font-family="'Space Grotesk',sans-serif" font-weight="800" font-size="15" fill="#FFD9A8" text-anchor="middle">−1</text>
    <text y="32" font-family="JetBrains Mono,monospace" font-size="8" fill="#FF8A3D" text-anchor="middle">cost</text>
  </g>

  <rect width="400" height="300" filter="url(#db-grain)" opacity=".05"/>
  <rect width="400" height="300" fill="url(#db-vig)"/>
</svg>
