<svg viewBox="0 0 400 300" xmlns="http://www.w3.org/2000/svg" role="img" aria-label="Failover Cluster — a resilient layered wall-unit of redundant padded panels with a Failover backup glow linking two nodes, a guardrail fortress">
  <defs>
    <radialGradient id="fc-bg" cx="50%" cy="28%" r="92%">
      <stop offset="0%" stop-color="#2A2150"/><stop offset="55%" stop-color="#1A1430"/><stop offset="100%" stop-color="#0E0A1C"/>
    </radialGradient>
    <linearGradient id="fc-panel" x1="0" y1="0" x2="0" y2="1">
      <stop offset="0%" stop-color="#B79CFF"/><stop offset="100%" stop-color="#5A47A0"/>
    </linearGradient>
    <linearGradient id="fc-panel2" x1="0" y1="0" x2="0" y2="1">
      <stop offset="0%" stop-color="#8E76D8"/><stop offset="100%" stop-color="#41327A"/>
    </linearGradient>
    <radialGradient id="fc-node" cx="40%" cy="35%" r="70%">
      <stop offset="0%" stop-color="#CFE0F2"/><stop offset="100%" stop-color="#5BD68A"/>
    </radialGradient>
    <radialGradient id="fc-aura" cx="50%" cy="50%" r="50%">
      <stop offset="0%" stop-color="#CDB8FF" stop-opacity=".5"/><stop offset="100%" stop-color="#A07CFF" stop-opacity="0"/>
    </radialGradient>
    <filter id="fc-soft" x="-40%" y="-40%" width="180%" height="180%"><feGaussianBlur stdDeviation="8"/></filter>
    <filter id="fc-grain"><feTurbulence type="fractalNoise" baseFrequency="0.9" numOctaves="2" stitchTiles="stitch"/><feColorMatrix type="matrix" values="0 0 0 0 0  0 0 0 0 0  0 0 0 0 0  0 0 0 .5 0"/></filter>
    <radialGradient id="fc-vig" cx="50%" cy="46%" r="72%"><stop offset="60%" stop-color="#000" stop-opacity="0"/><stop offset="100%" stop-color="#000" stop-opacity=".55"/></radialGradient>
  </defs>

  <rect width="400" height="300" fill="url(#fc-bg)"/>
  <g filter="url(#fc-soft)" opacity=".6"><ellipse cx="200" cy="120" rx="150" ry="90" fill="#A07CFF" opacity=".18"/></g>
  <g opacity=".7"><rect x="0" y="226" width="400" height="74" fill="#120D24"/></g>
  <ellipse cx="200" cy="252" rx="160" ry="16" fill="#1E1640" opacity=".7"/>
  <circle cx="200" cy="140" r="100" fill="url(#fc-aura)"/>

  <!-- redundant layered wall-unit -->
  <g>
    <!-- back redundancy layer (the failover backup, offset) -->
    <g transform="translate(36 16)" opacity=".55">
      <rect x="120" y="64" width="120" height="150" rx="18" fill="url(#fc-panel2)"/>
      <g stroke="#241C3A" stroke-width="3" opacity=".5"><line x1="120" y1="110" x2="240" y2="110"/><line x1="120" y1="160" x2="240" y2="160"/></g>
    </g>
    <!-- front primary unit -->
    <rect x="118" y="78" width="128" height="156" rx="20" fill="url(#fc-panel)"/>
    <rect x="118" y="78" width="128" height="30" rx="15" fill="#CDB8FF" opacity=".5"/>
    <!-- padded segment seams -->
    <g stroke="#3E3070" stroke-width="4" opacity=".55"><line x1="118" y1="128" x2="246" y2="128"/><line x1="118" y1="180" x2="246" y2="180"/><line x1="182" y1="78" x2="182" y2="234"/></g>
    <!-- redundant status nodes -->
    <circle cx="150" cy="103" r="6" fill="#5BD68A"/><circle cx="214" cy="103" r="6" fill="#5BD68A"/>
    <circle cx="150" cy="155" r="6" fill="#5BD68A"/><circle cx="214" cy="155" r="6" fill="#9FB3C8"/>
    <circle cx="150" cy="207" r="6" fill="#5BD68A"/><circle cx="214" cy="207" r="6" fill="#5BD68A"/>
    <!-- failover link: arc from a dimmed node to a lit backup -->
    <path d="M214 155 q40 -20 30 -56" fill="none" stroke="#CFE0F2" stroke-width="2.4" stroke-dasharray="4 4" opacity=".9"/>
    <circle cx="246" cy="100" r="9" fill="url(#fc-node)"/>
    <text x="246" y="84" font-family="JetBrains Mono,monospace" font-size="7" fill="#5BD68A" text-anchor="middle">FAILOVER</text>
    <!-- single calm sentinel eye on the wall -->
    <ellipse cx="182" cy="103" rx="9" ry="7" fill="#1A1430"/><circle cx="182" cy="103" r="3" fill="#CDB8FF"/>
    <!-- guardrail shield emblem at base -->
    <path d="M182 196 l16 7 v12 q0 14 -16 18 q-16 -4 -16 -18 v-12 z" fill="#1A1430" stroke="#F0E6D2" stroke-width="1.4"/>
    <path d="M174 214 l5 6 l11 -13" fill="none" stroke="#5BD68A" stroke-width="2.4" stroke-linecap="round" stroke-linejoin="round"/>
    <!-- rim light -->
    <path d="M118 234 L118 98 q0 -20 20 -20" fill="none" stroke="#FFF6E0" stroke-width="1.8" opacity=".6" stroke-linecap="round"/>
  </g>

  <rect width="400" height="300" filter="url(#fc-grain)" opacity=".05"/>
  <rect width="400" height="300" fill="url(#fc-vig)"/>
</svg>
