<svg viewBox="0 0 400 300" xmlns="http://www.w3.org/2000/svg" role="img" aria-label="Fork the Repo — a token-fish model duplicating along a branching git-fork path into an exact second copy, teal branch lines">
  <defs>
    <radialGradient id="fr-bg" cx="46%" cy="28%" r="92%">
      <stop offset="0%" stop-color="#0F3E40"/><stop offset="55%" stop-color="#0A2A2E"/><stop offset="100%" stop-color="#05181A"/>
    </radialGradient>
    <linearGradient id="fr-fish" x1="0" y1="0" x2="0" y2="1">
      <stop offset="0%" stop-color="#FFD9A8"/><stop offset="100%" stop-color="#FF8A3D"/>
    </linearGradient>
    <linearGradient id="fr-fish2" x1="0" y1="0" x2="0" y2="1">
      <stop offset="0%" stop-color="#FFC68A"/><stop offset="100%" stop-color="#E0702A"/>
    </linearGradient>
    <radialGradient id="fr-glow" cx="50%" cy="50%" r="50%">
      <stop offset="0%" stop-color="#39C9C0" stop-opacity=".4"/><stop offset="100%" stop-color="#39C9C0" stop-opacity="0"/>
    </radialGradient>
    <filter id="fr-soft" x="-40%" y="-40%" width="180%" height="180%"><feGaussianBlur stdDeviation="8"/></filter>
    <filter id="fr-grain"><feTurbulence type="fractalNoise" baseFrequency="0.9" numOctaves="2" stitchTiles="stitch"/><feColorMatrix type="matrix" values="0 0 0 0 0  0 0 0 0 0  0 0 0 0 0  0 0 0 .5 0"/></filter>
    <radialGradient id="fr-vig" cx="50%" cy="46%" r="72%"><stop offset="58%" stop-color="#000" stop-opacity="0"/><stop offset="100%" stop-color="#000" stop-opacity=".55"/></radialGradient>
    <!-- the model token (a chunky fish-bot) -->
    <g id="fr-model">
      <path d="M-24 0 q14 -22 40 0 q-14 22 -40 0 Z" fill="url(#fr-fish)"/>
      <path d="M16 0 l16 -12 l0 24 z" fill="url(#fr-fish2)"/>
      <circle cx="-10" cy="0" r="4.5" fill="#06181A"/><circle cx="-11" cy="-1.5" r="1.6" fill="#FFF"/>
      <path d="M-24 0 q14 -22 40 0" fill="none" stroke="#FFF6E0" stroke-width="1.4" opacity=".5"/>
    </g>
  </defs>

  <rect width="400" height="300" fill="url(#fr-bg)"/>
  <g filter="url(#fr-soft)" opacity=".6"><ellipse cx="200" cy="130" rx="160" ry="95" fill="#FF8A3D" opacity=".12"/><ellipse cx="200" cy="150" rx="120" ry="80" fill="#0E5E63" opacity=".45"/></g>
  <g opacity=".7"><rect x="0" y="234" width="400" height="66" fill="#072024"/></g>

  <!-- the git-fork branch lines (teal) -->
  <g fill="none" stroke="#39C9C0" stroke-width="5" stroke-linecap="round" opacity=".85">
    <!-- trunk -->
    <path d="M40 150 L150 150"/>
    <!-- fork up -->
    <path d="M150 150 C200 150 210 90 280 90"/>
    <!-- fork down -->
    <path d="M150 150 C200 150 210 210 280 210"/>
  </g>
  <!-- commit nodes -->
  <g fill="#0A2A2E" stroke="#39C9C0" stroke-width="3">
    <circle cx="64" cy="150" r="7"/><circle cx="110" cy="150" r="7"/><circle cx="150" cy="150" r="8"/>
  </g>
  <circle cx="150" cy="150" r="34" fill="url(#fr-glow)"/>
  <!-- fork glyph at the split -->
  <g transform="translate(150 150)" stroke="#BFF6FF" stroke-width="2.4" fill="none"><circle cx="0" cy="-2" r="0"/></g>

  <!-- original model (at the split) -->
  <g transform="translate(150 150) scale(1.15)"><use href="#fr-model"/></g>

  <!-- the two forked copies at the branch ends -->
  <g transform="translate(286 90) scale(1.05)"><use href="#fr-model"/></g>
  <g transform="translate(286 210) scale(1.05)">
    <use href="#fr-model"/>
    <!-- "copy" shimmer marker on the duplicate -->
    <g transform="translate(0 -22)"><path d="M-6 -6 l7 -2 l-3 7 l7 -1 l-12 12 l3 -8 l-6 1 z" fill="#BFF6FF"/></g>
  </g>

  <!-- ≤2 cost condition tag -->
  <g transform="translate(64 70)">
    <rect x="-34" y="-13" width="68" height="26" rx="13" fill="#06181A" stroke="#39C9C0" stroke-width="1.2"/>
    <text x="0" y="5" font-family="JetBrains Mono,monospace" font-size="10" fill="#39C9C0" text-anchor="middle" font-weight="700">fork ≤2</text>
  </g>
  <text x="312" y="150" font-family="JetBrains Mono,monospace" font-size="9" fill="#FF8A3D" opacity=".8">×2</text>

  <rect width="400" height="300" filter="url(#fr-grain)" opacity=".05"/>
  <rect width="400" height="300" fill="url(#fr-vig)"/>
</svg>
