<svg viewBox="0 0 400 300" xmlns="http://www.w3.org/2000/svg" role="img" aria-label="Glitch in the Stack — a clean server stack hit by an RGB-split datamosh bolt that fractures an enemy model into offset cyan and magenta channels">
  <defs>
    <radialGradient id="gs-bg" cx="46%" cy="28%" r="92%">
      <stop offset="0%" stop-color="#15294A"/><stop offset="55%" stop-color="#0C1426"/><stop offset="100%" stop-color="#060B16"/>
    </radialGradient>
    <linearGradient id="gs-stack" x1="0" y1="0" x2="0" y2="1">
      <stop offset="0%" stop-color="#3E6FC0"/><stop offset="100%" stop-color="#152C52"/>
    </linearGradient>
    <linearGradient id="gs-bolt" x1="0" y1="0" x2="1" y2="1">
      <stop offset="0%" stop-color="#22E0E0"/><stop offset="100%" stop-color="#FF4DD2"/>
    </linearGradient>
    <radialGradient id="gs-glow" cx="50%" cy="50%" r="50%">
      <stop offset="0%" stop-color="#FF4DD2" stop-opacity=".4"/><stop offset="100%" stop-color="#FF4DD2" stop-opacity="0"/>
    </radialGradient>
    <filter id="gs-soft" x="-40%" y="-40%" width="180%" height="180%"><feGaussianBlur stdDeviation="8"/></filter>
    <filter id="gs-grain"><feTurbulence type="fractalNoise" baseFrequency="0.9" numOctaves="2" stitchTiles="stitch"/><feColorMatrix type="matrix" values="0 0 0 0 0  0 0 0 0 0  0 0 0 0 0  0 0 0 .5 0"/></filter>
    <radialGradient id="gs-vig" cx="50%" cy="46%" r="72%"><stop offset="58%" stop-color="#000" stop-opacity="0"/><stop offset="100%" stop-color="#000" stop-opacity=".55"/></radialGradient>
  </defs>

  <rect width="400" height="300" fill="url(#gs-bg)"/>
  <g filter="url(#gs-soft)" opacity=".55"><ellipse cx="150" cy="120" rx="140" ry="90" fill="#4D8DF0" opacity=".15"/><ellipse cx="290" cy="150" rx="100" ry="90" fill="#FF4DD2" opacity=".10"/></g>
  <g opacity=".7"><rect x="0" y="234" width="400" height="66" fill="#0A1326"/></g>
  <ellipse cx="200" cy="250" rx="150" ry="14" fill="#0F1F3A" opacity=".7"/>

  <!-- the clean server stack (left), source of the glitch -->
  <g transform="translate(48 78)">
    <rect x="0" y="0" width="96" height="160" rx="8" fill="url(#gs-stack)" stroke="#2D5BA8" stroke-width="1.4"/>
    <g fill="#0C1426"><rect x="12" y="16" width="72" height="20" rx="4"/><rect x="12" y="44" width="72" height="20" rx="4"/><rect x="12" y="72" width="72" height="20" rx="4"/><rect x="12" y="100" width="72" height="20" rx="4"/><rect x="12" y="128" width="72" height="20" rx="4"/></g>
    <!-- one rack row corrupted/glitched (RGB split + scan offset) -->
    <g opacity=".9">
      <rect x="10" y="72" width="72" height="20" rx="4" fill="#22E0E0" opacity=".7"/>
      <rect x="16" y="72" width="72" height="20" rx="4" fill="#FF4DD2" opacity=".6"/>
      <rect x="13" y="72" width="60" height="6" fill="#0C1426"/>
    </g>
    <g fill="#5BD68A"><circle cx="22" cy="26" r="2.4"/><circle cx="22" cy="54" r="2.4"/><circle cx="22" cy="110" r="2.4"/></g>
  </g>

  <!-- the RGB-split datamosh bolt arcing right -->
  <g>
    <path d="M150 116 L208 132 L188 152 L246 168 L214 196 L262 184" fill="none" stroke="#22E0E0" stroke-width="4" stroke-linecap="round" opacity=".85" transform="translate(-3 -2)"/>
    <path d="M150 116 L208 132 L188 152 L246 168 L214 196 L262 184" fill="none" stroke="#FF4DD2" stroke-width="4" stroke-linecap="round" opacity=".85" transform="translate(3 2)"/>
    <path d="M150 116 L208 132 L188 152 L246 168 L214 196 L262 184" fill="none" stroke="#E6F1FF" stroke-width="2" stroke-linecap="round"/>
  </g>

  <!-- the enemy model fracturing into offset cyan/magenta channels -->
  <g transform="translate(298 152)">
    <circle cx="0" cy="0" r="56" fill="url(#gs-glow)"/>
    <!-- magenta channel (offset left) -->
    <g transform="translate(-6 3)" opacity=".75">
      <path d="M-30 56 L-22 -6 L0 -28 L22 -6 L30 56 Z" fill="#FF4DD2"/>
    </g>
    <!-- cyan channel (offset right) -->
    <g transform="translate(6 -3)" opacity=".75">
      <path d="M-30 56 L-22 -6 L0 -28 L22 -6 L30 56 Z" fill="#22E0E0"/>
    </g>
    <!-- core silhouette -->
    <path d="M-30 56 L-22 -6 L0 -28 L22 -6 L30 56 Z" fill="#16294A" opacity=".85"/>
    <!-- datamosh scan-offset slices -->
    <g opacity=".95">
      <rect x="-32" y="2" width="64" height="8" fill="#22E0E0" transform="translate(7 0)"/>
      <rect x="-32" y="22" width="64" height="6" fill="#FF4DD2" transform="translate(-7 0)"/>
      <rect x="-32" y="38" width="64" height="7" fill="#22E0E0" transform="translate(5 0)"/>
    </g>
    <!-- glitched eye -->
    <rect x="-10" y="-8" width="20" height="8" fill="#E6F1FF" transform="translate(3 0)"/>
    <rect x="-10" y="-8" width="20" height="8" fill="#FF4DD2" opacity=".7" transform="translate(-3 0)"/>
    <!-- scaling-laws damage number -->
    <text x="0" y="-40" font-family="'Space Grotesk',sans-serif" font-weight="800" font-size="18" fill="#FF4DD2" text-anchor="middle">−4</text>
  </g>

  <rect width="400" height="300" filter="url(#gs-grain)" opacity=".05"/>
  <rect width="400" height="300" fill="url(#gs-vig)"/>
</svg>
