<svg viewBox="0 0 400 300" xmlns="http://www.w3.org/2000/svg" role="img" aria-label="Index Crawler — a many-legged search-crawler critter scanning a grid wall of index tiles, one tile glowing as it draws, a guardrail unit">
  <defs>
    <radialGradient id="ic-bg" cx="48%" cy="28%" r="92%">
      <stop offset="0%" stop-color="#15294A"/><stop offset="55%" stop-color="#0C1426"/><stop offset="100%" stop-color="#060B16"/>
    </radialGradient>
    <radialGradient id="ic-body" cx="40%" cy="35%" r="70%">
      <stop offset="0%" stop-color="#8FBBF8"/><stop offset="55%" stop-color="#4D8DF0"/><stop offset="100%" stop-color="#1A3666"/>
    </radialGradient>
    <radialGradient id="ic-tile" cx="50%" cy="40%" r="65%">
      <stop offset="0%" stop-color="#BFF6FF"/><stop offset="60%" stop-color="#22E0E0"/><stop offset="100%" stop-color="#0A6E7A"/>
    </radialGradient>
    <radialGradient id="ic-glow" cx="50%" cy="50%" r="50%">
      <stop offset="0%" stop-color="#22E0E0" stop-opacity=".5"/><stop offset="100%" stop-color="#22E0E0" stop-opacity="0"/>
    </radialGradient>
    <filter id="ic-soft" x="-40%" y="-40%" width="180%" height="180%"><feGaussianBlur stdDeviation="8"/></filter>
    <filter id="ic-grain"><feTurbulence type="fractalNoise" baseFrequency="0.9" numOctaves="2" stitchTiles="stitch"/><feColorMatrix type="matrix" values="0 0 0 0 0  0 0 0 0 0  0 0 0 0 0  0 0 0 .5 0"/></filter>
    <radialGradient id="ic-vig" cx="50%" cy="46%" r="72%"><stop offset="60%" stop-color="#000" stop-opacity="0"/><stop offset="100%" stop-color="#000" stop-opacity=".55"/></radialGradient>
  </defs>

  <rect width="400" height="300" fill="url(#ic-bg)"/>
  <g filter="url(#ic-soft)" opacity=".6"><ellipse cx="150" cy="130" rx="150" ry="95" fill="#4D8DF0" opacity=".16"/></g>

  <!-- the grid wall of index tiles (background plane) -->
  <g transform="translate(40 30)">
    <g fill="#13284A" stroke="#1F3A66" stroke-width="1">
      <rect x="0" y="0" width="44" height="44" rx="4"/><rect x="52" y="0" width="44" height="44" rx="4"/><rect x="104" y="0" width="44" height="44" rx="4"/><rect x="156" y="0" width="44" height="44" rx="4"/><rect x="208" y="0" width="44" height="44" rx="4"/><rect x="260" y="0" width="44" height="44" rx="4"/>
      <rect x="0" y="52" width="44" height="44" rx="4"/><rect x="52" y="52" width="44" height="44" rx="4"/><rect x="104" y="52" width="44" height="44" rx="4"/><rect x="156" y="52" width="44" height="44" rx="4"/><rect x="208" y="52" width="44" height="44" rx="4"/><rect x="260" y="52" width="44" height="44" rx="4"/>
      <rect x="0" y="104" width="44" height="44" rx="4"/><rect x="52" y="104" width="44" height="44" rx="4"/><rect x="104" y="104" width="44" height="44" rx="4"/><rect x="156" y="104" width="44" height="44" rx="4"/><rect x="208" y="104" width="44" height="44" rx="4"/><rect x="260" y="104" width="44" height="44" rx="4"/>
    </g>
    <!-- index glyphs on a few tiles -->
    <g fill="#2D5BA8" font-family="JetBrains Mono,monospace" font-size="9" text-anchor="middle">
      <text x="22" y="27">01</text><text x="126" y="27">A7</text><text x="282" y="79">F3</text><text x="74" y="131">9C</text><text x="230" y="131">2E</text>
    </g>
    <!-- the glowing scanned tile (draw) -->
    <circle cx="178" cy="74" r="40" fill="url(#ic-glow)"/>
    <rect x="156" y="52" width="44" height="44" rx="4" fill="url(#ic-tile)"/>
    <text x="178" y="80" font-family="JetBrains Mono,monospace" font-size="13" fill="#06222a" text-anchor="middle" font-weight="700">↑</text>
  </g>

  <!-- the crawler critter, scanning -->
  <g transform="translate(150 196)">
    <!-- legs (many, material-design segments) -->
    <g stroke="#2D5BA8" stroke-width="5" stroke-linecap="round" fill="none">
      <path d="M-30 6 L-58 -14 L-66 8"/><path d="M-26 16 L-54 14 L-60 36"/><path d="M-22 26 L-46 40 L-40 60"/>
      <path d="M30 6 L58 -14 L66 8"/><path d="M26 16 L54 14 L60 36"/><path d="M22 26 L46 40 L40 60"/>
    </g>
    <!-- body -->
    <ellipse cx="0" cy="14" rx="40" ry="32" fill="url(#ic-body)"/>
    <ellipse cx="0" cy="14" rx="40" ry="32" fill="#1A3666" opacity=".3" transform="translate(6 5)"/>
    <!-- two big scanner eyes -->
    <circle cx="-13" cy="6" r="10" fill="#0C1426"/><circle cx="13" cy="6" r="10" fill="#0C1426"/>
    <circle cx="-13" cy="6" r="5" fill="#22E0E0"/><circle cx="13" cy="6" r="5" fill="#22E0E0"/>
    <circle cx="-15" cy="4" r="1.8" fill="#BFF6FF"/><circle cx="11" cy="4" r="1.8" fill="#BFF6FF"/>
    <!-- guardrail plate -->
    <path d="M0 30 l12 5 v8 q0 10 -12 13 q-12 -3 -12 -13 v-8 z" fill="#0C1426" stroke="#6FA6F5" stroke-width="1.2"/>
    <!-- scan beams up to the glowing tile -->
    <g stroke="#22E0E0" stroke-width="1.4" stroke-dasharray="3 4" opacity=".8"><line x1="-13" y1="-2" x2="60" y2="-78"/><line x1="13" y1="-2" x2="74" y2="-72"/></g>
    <!-- rim light -->
    <path d="M-40 14 a40 32 0 0 1 24 -28" fill="none" stroke="#FFF6E0" stroke-width="1.6" opacity=".55"/>
  </g>

  <rect width="400" height="300" filter="url(#ic-grain)" opacity=".05"/>
  <rect width="400" height="300" fill="url(#ic-vig)"/>
</svg>
