<svg viewBox="0 0 400 300" xmlns="http://www.w3.org/2000/svg" role="img" aria-label="Mixture-of-Interns — a cluster of small intern units merging into one bigger guardrail unit, growing plus-one plus-one per buddy">
  <defs>
    <radialGradient id="mi-bg" cx="48%" cy="28%" r="92%">
      <stop offset="0%" stop-color="#0F3E40"/><stop offset="55%" stop-color="#0A2A2E"/><stop offset="100%" stop-color="#05181A"/>
    </radialGradient>
    <linearGradient id="mi-big" x1="0" y1="0" x2="0" y2="1">
      <stop offset="0%" stop-color="#FFC68A"/><stop offset="100%" stop-color="#E0702A"/>
    </linearGradient>
    <linearGradient id="mi-small" x1="0" y1="0" x2="0" y2="1">
      <stop offset="0%" stop-color="#FFD9A8"/><stop offset="100%" stop-color="#FF8A3D"/>
    </linearGradient>
    <radialGradient id="mi-glow" cx="50%" cy="50%" r="50%">
      <stop offset="0%" stop-color="#FF8A3D" stop-opacity=".4"/><stop offset="100%" stop-color="#FF8A3D" stop-opacity="0"/>
    </radialGradient>
    <filter id="mi-soft" x="-40%" y="-40%" width="180%" height="180%"><feGaussianBlur stdDeviation="8"/></filter>
    <filter id="mi-grain"><feTurbulence type="fractalNoise" baseFrequency="0.9" numOctaves="2" stitchTiles="stitch"/><feColorMatrix type="matrix" values="0 0 0 0 0  0 0 0 0 0  0 0 0 0 0  0 0 0 .5 0"/></filter>
    <radialGradient id="mi-vig" cx="50%" cy="46%" r="72%"><stop offset="58%" stop-color="#000" stop-opacity="0"/><stop offset="100%" stop-color="#000" stop-opacity=".55"/></radialGradient>
    <g id="mi-intern">
      <ellipse cx="0" cy="6" rx="14" ry="16" fill="url(#mi-small)"/>
      <circle cx="0" cy="-10" r="9" fill="url(#mi-small)"/>
      <circle cx="-3" cy="-11" r="1.8" fill="#06181A"/><circle cx="4" cy="-11" r="1.8" fill="#06181A"/>
    </g>
  </defs>

  <rect width="400" height="300" fill="url(#mi-bg)"/>
  <g filter="url(#mi-soft)" opacity=".6"><ellipse cx="200" cy="130" rx="150" ry="95" fill="#FF8A3D" opacity=".13"/><ellipse cx="120" cy="230" rx="120" ry="60" fill="#0E5E63" opacity=".5"/></g>
  <g opacity=".7"><rect x="0" y="228" width="400" height="72" fill="#072024"/></g>
  <ellipse cx="210" cy="252" rx="160" ry="16" fill="#0C3438" opacity=".7"/>
  <circle cx="210" cy="150" r="100" fill="url(#mi-glow)"/>

  <!-- small interns merging in from the left -->
  <g>
    <g transform="translate(56 196) scale(.85)" opacity=".9"><use href="#mi-intern"/></g>
    <g transform="translate(92 168) scale(.78)" opacity=".8"><use href="#mi-intern"/></g>
    <g transform="translate(70 138) scale(.7)" opacity=".7"><use href="#mi-intern"/></g>
    <!-- merge motion streaks -->
    <g stroke="#FFD9A8" stroke-width="2" opacity=".5" stroke-linecap="round"><line x1="86" y1="196" x2="140" y2="180"/><line x1="118" y1="168" x2="156" y2="166"/><line x1="96" y1="140" x2="150" y2="156"/></g>
  </g>

  <!-- the big merged guardrail unit (right) -->
  <g transform="translate(228 162)">
    <!-- broad rounded body -->
    <ellipse cx="0" cy="30" rx="56" ry="58" fill="url(#mi-big)"/>
    <ellipse cx="0" cy="30" rx="56" ry="58" fill="#9A4416" opacity=".25" transform="translate(8 6)"/>
    <!-- seams showing it's composed of many -->
    <path d="M-40 12 q40 16 80 0 M-44 40 q44 18 88 0 M0 -24 L0 86" fill="none" stroke="#C25A1E" stroke-width="2" opacity=".55"/>
    <!-- big head -->
    <circle cx="0" cy="-18" r="26" fill="url(#mi-big)"/>
    <circle cx="-9" cy="-20" r="3.2" fill="#06181A"/><circle cx="9" cy="-20" r="3.2" fill="#06181A"/>
    <path d="M-8 -8 q8 5 16 0" fill="none" stroke="#7a3a14" stroke-width="2.2" stroke-linecap="round"/>
    <!-- guardrail shield plate -->
    <path d="M0 44 l16 7 v10 q0 13 -16 17 q-16 -4 -16 -17 v-10 z" fill="#06181A" stroke="#FFD9A8" stroke-width="1.4"/>
    <path d="M-7 60 l5 6 l11 -13" fill="none" stroke="#FF8A3D" stroke-width="2.4" stroke-linecap="round" stroke-linejoin="round"/>
    <!-- rim light -->
    <path d="M-56 30 a56 58 0 0 1 30 -52" fill="none" stroke="#FFF6E0" stroke-width="1.8" opacity=".55"/>
  </g>

  <!-- +1/+1 per buddy tags -->
  <g font-family="'Space Grotesk',sans-serif" font-weight="800" font-size="13" fill="#5BD68A">
    <text x="300" y="96">+1</text><text x="316" y="120">+1</text><text x="300" y="144" font-size="11" opacity=".8">+1</text>
  </g>
  <text x="210" y="290" font-family="JetBrains Mono,monospace" font-size="9" fill="#FF8A3D" text-anchor="middle" opacity=".8">// +1/+1 per other Model (max +3)</text>

  <rect width="400" height="300" filter="url(#mi-grain)" opacity=".05"/>
  <rect width="400" height="300" fill="url(#mi-vig)"/>
</svg>
