<svg viewBox="0 0 400 300" xmlns="http://www.w3.org/2000/svg" role="img" aria-label="Move Fast, Break Prod — a glass server tower shattering as a DEPLOY button is slammed, throwing three coral-red error sparks">
  <defs>
    <radialGradient id="mfb-bg" cx="50%" cy="35%" r="90%">
      <stop offset="0%" stop-color="#163829"/>
      <stop offset="55%" stop-color="#0D1A14"/>
      <stop offset="100%" stop-color="#070D0A"/>
    </radialGradient>
    <linearGradient id="mfb-glass" x1="0" y1="0" x2="1" y2="1">
      <stop offset="0%" stop-color="#BFEFD9" stop-opacity=".9"/>
      <stop offset="50%" stop-color="#3FB689" stop-opacity=".85"/>
      <stop offset="100%" stop-color="#0B4d37" stop-opacity=".9"/>
    </linearGradient>
    <radialGradient id="mfb-spark" cx="50%" cy="50%" r="50%">
      <stop offset="0%" stop-color="#FFE7E0"/>
      <stop offset="40%" stop-color="#FF5C5C"/>
      <stop offset="100%" stop-color="#FF5C5C" stop-opacity="0"/>
    </radialGradient>
    <filter id="mfb-soft" x="-40%" y="-40%" width="180%" height="180%"><feGaussianBlur stdDeviation="8"/></filter>
    <filter id="mfb-grain"><feTurbulence type="fractalNoise" baseFrequency="0.9" numOctaves="2" stitchTiles="stitch"/><feColorMatrix type="matrix" values="0 0 0 0 0  0 0 0 0 0  0 0 0 0 0  0 0 0 .5 0"/></filter>
    <radialGradient id="mfb-vig" cx="50%" cy="46%" r="72%"><stop offset="60%" stop-color="#000" stop-opacity="0"/><stop offset="100%" stop-color="#000" stop-opacity=".55"/></radialGradient>
  </defs>

  <rect width="400" height="300" fill="url(#mfb-bg)"/>

  <g filter="url(#mfb-soft)" opacity=".6">
    <ellipse cx="200" cy="130" rx="150" ry="90" fill="#19C37D" opacity=".14"/>
    <ellipse cx="210" cy="120" rx="70" ry="60" fill="#FF5C5C" opacity=".10"/>
  </g>

  <!-- back racks -->
  <g opacity=".75"><rect x="0" y="220" width="400" height="80" fill="#0A1510"/>
    <g fill="#0E2419"><rect x="16" y="182" width="56" height="50" rx="4"/><rect x="330" y="180" width="56" height="52" rx="4"/></g>
  </g>

  <!-- ground -->
  <ellipse cx="200" cy="250" rx="180" ry="18" fill="#0E2419" opacity=".7"/>

  <!-- the production server tower, fracturing -->
  <g transform="translate(150 70)">
    <!-- intact base -->
    <path d="M0 180 L0 70 L70 40 L70 150 Z" fill="url(#mfb-glass)"/>
    <path d="M70 40 L70 150 L0 180 L0 150 Z" fill="#0B4d37" opacity=".4"/>
    <!-- rack shelves -->
    <g stroke="#0A2E22" stroke-width="2" opacity=".6">
      <line x1="0" y1="96" x2="70" y2="66"/><line x1="0" y1="122" x2="70" y2="92"/><line x1="0" y1="148" x2="70" y2="118"/>
    </g>
    <!-- a jagged fracture line up the tower -->
    <path d="M34 178 l8 -34 l-12 -18 l14 -22 l-10 -16 l12 -26" fill="none" stroke="#FF5C5C" stroke-width="2.4" opacity=".95"/>
    <!-- a top shard breaking off -->
    <path d="M14 36 L52 22 L40 -6 L8 8 Z" fill="url(#mfb-glass)" transform="rotate(-14 30 14)"/>
    <path d="M14 36 L52 22 L40 -6 Z" fill="#0B4d37" opacity=".35" transform="rotate(-14 30 14)"/>
    <!-- flying glass chips -->
    <path d="M64 10 l12 -4 l-2 12 z" fill="#BFEFD9" opacity=".85"/>
    <path d="M-12 30 l-12 6 l10 6 z" fill="#7FE6BE" opacity=".7"/>
    <!-- rim light -->
    <path d="M0 180 L0 70 L70 40" fill="none" stroke="#FFF6E0" stroke-width="1.8" opacity=".7" stroke-linecap="round"/>
  </g>

  <!-- the slammed DEPLOY button -->
  <g transform="translate(286 196)">
    <ellipse cx="0" cy="6" rx="30" ry="9" fill="#0B201A"/>
    <rect x="-28" y="-10" width="56" height="18" rx="9" fill="#0E2C22" stroke="#19C37D" stroke-width="1.2"/>
    <ellipse cx="0" cy="-10" rx="26" ry="8" fill="#FF5C5C"/>
    <ellipse cx="0" cy="-12" rx="20" ry="5.5" fill="#FF8A8A"/>
    <text x="0" y="-8" font-family="JetBrains Mono, monospace" font-size="8" fill="#3a0d0d" text-anchor="middle" font-weight="700">DEPLOY</text>
    <!-- a hand/piston slamming it -->
    <path d="M-8 -44 L8 -44 L6 -16 L-6 -16 Z" fill="url(#mfb-glass)"/>
  </g>

  <!-- three coral-red error sparks (3 damage, split as you choose) -->
  <g>
    <g transform="translate(210 90)"><circle r="16" fill="url(#mfb-spark)"/><path d="M-6 -8 l8 -2 l-3 7 l7 -1 l-11 12 l3 -8 l-6 1 z" fill="#FFE7E0"/></g>
    <g transform="translate(120 160)"><circle r="13" fill="url(#mfb-spark)"/><path d="M-5 -6 l6 -2 l-2 6 l6 -1 l-9 10 l2 -7 l-5 1 z" fill="#FFE7E0"/></g>
    <g transform="translate(258 132)"><circle r="11" fill="url(#mfb-spark)"/><path d="M-4 -5 l5 -1 l-2 5 l5 -1 l-8 9 l2 -6 l-4 1 z" fill="#FFE7E0"/></g>
  </g>

  <rect width="400" height="300" filter="url(#mfb-grain)" opacity=".05"/>
  <rect width="400" height="300" fill="url(#mfb-vig)"/>
</svg>
