<svg viewBox="0 0 400 300" xmlns="http://www.w3.org/2000/svg" role="img" aria-label="Open-Weights Intern — a scrappy hoodie-and-flip-flops intern flinging open a glowing open-weights repo box as a card flies out">
  <defs>
    <radialGradient id="ow-bg" cx="50%" cy="28%" r="92%">
      <stop offset="0%" stop-color="#0F3E40"/><stop offset="55%" stop-color="#0A2A2E"/><stop offset="100%" stop-color="#05181A"/>
    </radialGradient>
    <linearGradient id="ow-hoodie" x1="0" y1="0" x2="0" y2="1">
      <stop offset="0%" stop-color="#FF8A3D"/><stop offset="100%" stop-color="#B5521A"/>
    </linearGradient>
    <linearGradient id="ow-skin" x1="0" y1="0" x2="0" y2="1">
      <stop offset="0%" stop-color="#F2D2B0"/><stop offset="100%" stop-color="#CC9E78"/>
    </linearGradient>
    <radialGradient id="ow-repo" cx="50%" cy="40%" r="65%">
      <stop offset="0%" stop-color="#BFF6FF"/><stop offset="55%" stop-color="#39C9C0"/><stop offset="100%" stop-color="#0A4E52"/>
    </radialGradient>
    <radialGradient id="ow-glow" cx="50%" cy="50%" r="50%">
      <stop offset="0%" stop-color="#39C9C0" stop-opacity=".5"/><stop offset="100%" stop-color="#39C9C0" stop-opacity="0"/>
    </radialGradient>
    <linearGradient id="ow-card" x1="0" y1="0" x2="0" y2="1">
      <stop offset="0%" stop-color="#FFE0BC"/><stop offset="100%" stop-color="#F0A35E"/>
    </linearGradient>
    <filter id="ow-soft" x="-40%" y="-40%" width="180%" height="180%"><feGaussianBlur stdDeviation="8"/></filter>
    <filter id="ow-grain"><feTurbulence type="fractalNoise" baseFrequency="0.9" numOctaves="2" stitchTiles="stitch"/><feColorMatrix type="matrix" values="0 0 0 0 0  0 0 0 0 0  0 0 0 0 0  0 0 0 .5 0"/></filter>
    <radialGradient id="ow-vig" cx="50%" cy="46%" r="72%"><stop offset="58%" stop-color="#000" stop-opacity="0"/><stop offset="100%" stop-color="#000" stop-opacity=".55"/></radialGradient>
  </defs>

  <rect width="400" height="300" fill="url(#ow-bg)"/>
  <g filter="url(#ow-soft)" opacity=".6"><ellipse cx="160" cy="120" rx="140" ry="90" fill="#FF8A3D" opacity=".13"/><ellipse cx="280" cy="160" rx="110" ry="90" fill="#0E5E63" opacity=".45"/></g>
  <g opacity=".7"><rect x="0" y="232" width="400" height="68" fill="#072024"/></g>
  <ellipse cx="200" cy="256" rx="160" ry="14" fill="#0C3438" opacity=".7"/>

  <!-- the open weights repo box (right), glowing, lid flung open -->
  <g transform="translate(268 150)">
    <circle cx="0" cy="20" r="58" fill="url(#ow-glow)"/>
    <!-- open lid -->
    <path d="M-44 4 L44 4 L60 -22 L-28 -22 Z" fill="#0E5E63" transform="rotate(-18 -44 4)"/>
    <!-- box body -->
    <path d="M-44 4 L44 4 L52 70 L-52 70 Z" fill="#0A4E52" stroke="#39C9C0" stroke-width="1.6"/>
    <!-- weights spilling: glowing grid tiles -->
    <g fill="url(#ow-repo)">
      <rect x="-30" y="-2" width="14" height="14" rx="2" transform="rotate(-12 -23 5)"/>
      <rect x="-4" y="-12" width="14" height="14" rx="2" transform="rotate(8 3 -5)"/>
      <rect x="20" y="-4" width="14" height="14" rx="2" transform="rotate(-6 27 3)"/>
      <rect x="-12" y="20" width="12" height="12" rx="2"/>
      <rect x="14" y="22" width="12" height="12" rx="2"/>
    </g>
    <text x="0" y="58" font-family="JetBrains Mono,monospace" font-size="9" fill="#BFF6FF" text-anchor="middle">/weights</text>
  </g>

  <!-- the drawn card flying out, upper-right -->
  <g transform="translate(330 72) rotate(18)">
    <rect width="46" height="64" rx="6" fill="url(#ow-card)" stroke="#FF8A3D" stroke-width="1.4"/>
    <rect x="7" y="9" width="32" height="20" rx="3" fill="#0E5E63"/>
    <rect x="7" y="34" width="32" height="3" fill="#C77A3E"/>
    <text x="23" y="58" font-family="JetBrains Mono,monospace" font-size="8" fill="#B5521A" text-anchor="middle" font-weight="700">DRAW</text>
  </g>

  <!-- the scrappy intern (left) -->
  <g>
    <!-- legs + flip-flops -->
    <g>
      <rect x="118" y="214" width="14" height="38" rx="4" fill="#1E4A4E"/><rect x="146" y="214" width="14" height="38" rx="4" fill="#1E4A4E"/>
      <ellipse cx="124" cy="256" rx="14" ry="6" fill="#FFB36A"/><ellipse cx="154" cy="256" rx="14" ry="6" fill="#FFB36A"/>
      <line x1="124" y1="250" x2="124" y2="256" stroke="#0A2A2E" stroke-width="2"/><line x1="154" y1="250" x2="154" y2="256" stroke="#0A2A2E" stroke-width="2"/>
    </g>
    <!-- hoodie torso -->
    <path d="M104 214 q-6 -56 36 -64 q42 8 36 64 z" fill="url(#ow-hoodie)"/>
    <!-- hood + drawstrings -->
    <path d="M118 158 q22 -22 44 0 q-4 12 -22 12 q-18 0 -22 -12 z" fill="#B5521A"/>
    <line x1="132" y1="168" x2="130" y2="190" stroke="#FFD9A8" stroke-width="2"/><line x1="148" y1="168" x2="150" y2="190" stroke="#FFD9A8" stroke-width="2"/>
    <!-- hoodie pocket -->
    <path d="M120 188 q20 10 40 0 l-4 18 q-16 8 -32 0 z" fill="#9A4416"/>
    <!-- head -->
    <circle cx="140" cy="146" r="24" fill="url(#ow-skin)"/>
    <path d="M118 142 q4 -22 22 -22 q18 0 22 22 q-10 -10 -22 -8 q-12 -2 -22 8 z" fill="#3a2a1a"/>
    <circle cx="132" cy="146" r="2.6" fill="#2a1c10"/><circle cx="148" cy="146" r="2.6" fill="#2a1c10"/>
    <path d="M134 156 q6 4 12 0" fill="none" stroke="#9a6a44" stroke-width="2" stroke-linecap="round"/>
    <!-- arm flinging the box open -->
    <path d="M170 196 L226 168 L232 180 L178 210 Z" fill="url(#ow-hoodie)"/>
    <!-- rim light -->
    <path d="M104 214 q-6 -56 36 -64" fill="none" stroke="#FFF6E0" stroke-width="1.6" opacity=".55" stroke-linecap="round"/>
  </g>

  <rect width="400" height="300" filter="url(#ow-grain)" opacity=".05"/>
  <rect width="400" height="300" fill="url(#ow-vig)"/>
</svg>
