<svg viewBox="0 0 400 300" xmlns="http://www.w3.org/2000/svg" role="img" aria-label="Paperclip Auditor — an earnest padded rabbit clutching a clipboard, standing calmly behind a soft foam guardrail wall">
  <defs>
    <radialGradient id="pa-bg" cx="46%" cy="28%" r="92%">
      <stop offset="0%" stop-color="#2A2150"/><stop offset="55%" stop-color="#1A1430"/><stop offset="100%" stop-color="#0E0A1C"/>
    </radialGradient>
    <linearGradient id="pa-fur" x1="0" y1="0" x2="0" y2="1">
      <stop offset="0%" stop-color="#F0E6D2"/><stop offset="100%" stop-color="#C9B79A"/>
    </linearGradient>
    <linearGradient id="pa-foam" x1="0" y1="0" x2="0" y2="1">
      <stop offset="0%" stop-color="#B79CFF"/><stop offset="100%" stop-color="#5A47A0"/>
    </linearGradient>
    <radialGradient id="pa-halo" cx="50%" cy="50%" r="50%">
      <stop offset="0%" stop-color="#F0E6D2" stop-opacity=".5"/><stop offset="100%" stop-color="#A07CFF" stop-opacity="0"/>
    </radialGradient>
    <filter id="pa-soft" x="-40%" y="-40%" width="180%" height="180%"><feGaussianBlur stdDeviation="8"/></filter>
    <filter id="pa-grain"><feTurbulence type="fractalNoise" baseFrequency="0.9" numOctaves="2" stitchTiles="stitch"/><feColorMatrix type="matrix" values="0 0 0 0 0  0 0 0 0 0  0 0 0 0 0  0 0 0 .5 0"/></filter>
    <radialGradient id="pa-vig" cx="50%" cy="46%" r="72%"><stop offset="60%" stop-color="#000" stop-opacity="0"/><stop offset="100%" stop-color="#000" stop-opacity=".55"/></radialGradient>
  </defs>

  <rect width="400" height="300" fill="url(#pa-bg)"/>

  <g filter="url(#pa-soft)" opacity=".6">
    <ellipse cx="200" cy="110" rx="150" ry="80" fill="#A07CFF" opacity=".18"/>
    <ellipse cx="140" cy="230" rx="120" ry="60" fill="#5A47A0" opacity=".4"/>
  </g>

  <!-- back racks (soft, indigo) -->
  <g opacity=".7"><rect x="0" y="216" width="400" height="84" fill="#120D24"/>
    <g fill="#1E1640"><rect x="16" y="178" width="54" height="50" rx="6"/><rect x="330" y="176" width="54" height="52" rx="6"/></g>
  </g>

  <!-- calm halo -->
  <circle cx="200" cy="124" r="92" fill="url(#pa-halo)"/>

  <!-- ground -->
  <ellipse cx="200" cy="258" rx="170" ry="16" fill="#1E1640" opacity=".7"/>

  <!-- earnest padded rabbit -->
  <g>
    <!-- ears -->
    <path d="M186 96 q-10 -56 4 -70 q14 14 8 66 z" fill="url(#pa-fur)"/>
    <path d="M214 96 q10 -56 -4 -70 q-14 14 -8 66 z" fill="url(#pa-fur)"/>
    <path d="M188 92 q-6 -42 3 -56" fill="none" stroke="#E0A3C8" stroke-width="4" opacity=".5"/>
    <path d="M212 92 q6 -42 -3 -56" fill="none" stroke="#E0A3C8" stroke-width="4" opacity=".5"/>
    <!-- padded body (rounded) -->
    <ellipse cx="200" cy="190" rx="48" ry="56" fill="url(#pa-fur)"/>
    <path d="M200 138 a48 56 0 0 1 0 108 z" fill="#C9B79A" opacity=".5"/>
    <!-- padding seams -->
    <path d="M170 176 q30 14 60 0 M168 200 q32 16 64 0" fill="none" stroke="#B0987A" stroke-width="2" opacity=".6"/>
    <!-- head -->
    <circle cx="200" cy="118" r="32" fill="url(#pa-fur)"/>
    <circle cx="200" cy="118" r="32" fill="#C9B79A" opacity=".25" transform="translate(8 6)"/>
    <!-- calm eyes + content expression -->
    <circle cx="189" cy="116" r="3.2" fill="#2A2150"/><circle cx="211" cy="116" r="3.2" fill="#2A2150"/>
    <path d="M193 128 q7 5 14 0" fill="none" stroke="#7a5f7a" stroke-width="2" stroke-linecap="round"/>
    <ellipse cx="200" cy="124" rx="3" ry="2.2" fill="#C98CA8"/>
    <!-- clipboard with paperclip -->
    <g transform="translate(150 176) rotate(-8)">
      <rect x="0" y="0" width="46" height="58" rx="4" fill="#1A1430" stroke="#A07CFF" stroke-width="1.6"/>
      <rect x="6" y="10" width="34" height="3" rx="1.5" fill="#6F5BA8"/>
      <rect x="6" y="20" width="34" height="3" rx="1.5" fill="#6F5BA8"/>
      <rect x="6" y="30" width="26" height="3" rx="1.5" fill="#6F5BA8"/>
      <!-- the paperclip -->
      <path d="M16 -6 q14 -2 14 8 v18 q0 6 -8 6 q-8 0 -8 -8 v-12 q0 -4 4 -4 q4 0 4 4 v12" fill="none" stroke="#C9B79A" stroke-width="2.4" stroke-linecap="round"/>
      <text x="23" y="50" font-family="JetBrains Mono,monospace" font-size="7" fill="#9FB3C8" text-anchor="middle">AUDIT ✓</text>
    </g>
    <!-- rim light -->
    <path d="M186 96 q-10 -56 4 -70" fill="none" stroke="#FFF6E0" stroke-width="1.6" opacity=".6" stroke-linecap="round"/>
    <path d="M168 118 a32 32 0 0 1 14 -26" fill="none" stroke="#FFF6E0" stroke-width="1.6" opacity=".55"/>
  </g>

  <!-- soft foam GUARDRAIL wall in front -->
  <g transform="translate(0 206)">
    <rect x="56" y="0" width="288" height="40" rx="14" fill="url(#pa-foam)"/>
    <rect x="56" y="0" width="288" height="14" rx="7" fill="#CDB8FF" opacity=".5"/>
    <!-- padded segment lines -->
    <g stroke="#3E3070" stroke-width="3" opacity=".5"><line x1="120" y1="4" x2="120" y2="36"/><line x1="184" y1="4" x2="184" y2="36"/><line x1="248" y1="4" x2="248" y2="36"/></g>
    <!-- shield glyph -->
    <path d="M200 8 l12 5 v9 q0 10 -12 14 q-12 -4 -12 -14 v-9 z" fill="#1A1430" stroke="#F0E6D2" stroke-width="1.4"/>
  </g>

  <rect width="400" height="300" filter="url(#pa-grain)" opacity=".05"/>
  <rect width="400" height="300" fill="url(#pa-vig)"/>
</svg>
