<svg viewBox="0 0 400 300" xmlns="http://www.w3.org/2000/svg" role="img" aria-label="Series-F Frenzy — a hype-bot raining glowing F funding chips over a cheering row of smaller bots, all gaining hype arrows">
  <defs>
    <radialGradient id="sff-bg" cx="50%" cy="26%" r="90%">
      <stop offset="0%" stop-color="#17392B"/><stop offset="55%" stop-color="#0D1A14"/><stop offset="100%" stop-color="#070D0A"/>
    </radialGradient>
    <linearGradient id="sff-chrome" x1="0" y1="0" x2="1" y2="1">
      <stop offset="0%" stop-color="#EAFBF3"/><stop offset="45%" stop-color="#7FE6BE"/><stop offset="100%" stop-color="#0E6346"/>
    </linearGradient>
    <radialGradient id="sff-coin" cx="38%" cy="32%" r="70%">
      <stop offset="0%" stop-color="#FFE9A8"/><stop offset="55%" stop-color="#F4C04C"/><stop offset="100%" stop-color="#8a5a12"/>
    </radialGradient>
    <linearGradient id="sff-spot" x1="0" y1="0" x2="0" y2="1">
      <stop offset="0%" stop-color="#F4C04C" stop-opacity=".4"/><stop offset="100%" stop-color="#F4C04C" stop-opacity="0"/>
    </linearGradient>
    <filter id="sff-soft" x="-40%" y="-40%" width="180%" height="180%"><feGaussianBlur stdDeviation="8"/></filter>
    <filter id="sff-grain"><feTurbulence type="fractalNoise" baseFrequency="0.9" numOctaves="2" stitchTiles="stitch"/><feColorMatrix type="matrix" values="0 0 0 0 0  0 0 0 0 0  0 0 0 0 0  0 0 0 .5 0"/></filter>
    <radialGradient id="sff-vig" cx="50%" cy="46%" r="72%"><stop offset="60%" stop-color="#000" stop-opacity="0"/><stop offset="100%" stop-color="#000" stop-opacity=".55"/></radialGradient>
  </defs>

  <rect width="400" height="300" fill="url(#sff-bg)"/>

  <g filter="url(#sff-soft)" opacity=".6">
    <ellipse cx="200" cy="110" rx="150" ry="80" fill="#19C37D" opacity=".15"/>
    <ellipse cx="200" cy="80" rx="80" ry="60" fill="#F4C04C" opacity=".10"/>
  </g>

  <!-- back racks -->
  <g opacity=".75"><rect x="0" y="220" width="400" height="80" fill="#0A1510"/>
    <g fill="#0E2419"><rect x="14" y="184" width="52" height="48" rx="4"/><rect x="334" y="182" width="52" height="50" rx="4"/></g>
  </g>

  <!-- money spotlight from the central bot -->
  <path d="M200 70 L120 250 L280 250 Z" fill="url(#sff-spot)" opacity=".7"/>
  <ellipse cx="200" cy="258" rx="170" ry="16" fill="#0E2419" opacity=".7"/>

  <!-- row of smaller cheering bots gaining hype -->
  <g>
    <g transform="translate(72 196) scale(.62)" fill="url(#sff-chrome)">
      <path d="M0 80 L-16 26 L0 -6 L16 26 Z"/><path d="M0 -20 L12 0 L0 14 L-12 0 Z"/>
      <circle cx="0" cy="-2" r="3.5" fill="#06150F"/><circle cx="0" cy="-2" r="2" fill="#7FF5C0"/>
    </g>
    <g transform="translate(330 196) scale(.62)" fill="url(#sff-chrome)">
      <path d="M0 80 L-16 26 L0 -6 L16 26 Z"/><path d="M0 -20 L12 0 L0 14 L-12 0 Z"/>
      <circle cx="0" cy="-2" r="3.5" fill="#06150F"/><circle cx="0" cy="-2" r="2" fill="#7FF5C0"/>
    </g>
    <!-- hype arrows over the small bots -->
    <path d="M72 150 l8 -14 l8 14 l-5 0 l0 10 l-6 0 l0 -10 z" fill="#7FF5C0"/>
    <path d="M330 150 l8 -14 l8 14 l-5 0 l0 10 l-6 0 l0 -10 z" fill="#7FF5C0"/>
  </g>

  <!-- central hype-bot tossing funding chips up -->
  <g transform="translate(200 0)">
    <path d="M-30 262 L-18 168 L18 168 L30 262 Z" fill="url(#sff-chrome)"/>
    <path d="M0 168 L18 168 L30 262 L0 262 Z" fill="#0E6346" opacity=".4"/>
    <path d="M-34 172 L0 84 L34 172 Z" fill="url(#sff-chrome)"/>
    <path d="M0 84 L34 172 L0 172 Z" fill="#0E6346" opacity=".45"/>
    <rect x="-16" y="120" width="32" height="42" rx="5" fill="#06150F" stroke="#19C37D" stroke-width="1.3"/>
    <text x="0" y="146" font-family="JetBrains Mono, monospace" font-size="16" fill="#F4C04C" text-anchor="middle" font-weight="700">$$</text>
    <path d="M0 70 L18 96 L0 116 L-18 96 Z" fill="url(#sff-chrome)"/>
    <circle cx="0" cy="96" r="6" fill="#06150F"/><circle cx="0" cy="96" r="3.6" fill="#7FF5C0"/>
    <!-- both arms thrown up -->
    <path d="M-18 134 L-58 92 L-50 82 L-12 122 Z" fill="url(#sff-chrome)"/>
    <path d="M18 134 L58 92 L50 82 L12 122 Z" fill="url(#sff-chrome)"/>
    <path d="M-34 172 L0 84 L18 96" fill="none" stroke="#FFF6E0" stroke-width="1.8" opacity=".75" stroke-linecap="round"/>
  </g>

  <!-- raining F funding chips -->
  <g font-family="'Space Grotesk',sans-serif" font-weight="800" font-size="14" text-anchor="middle">
    <g transform="translate(150 60) rotate(-12)"><circle r="13" fill="url(#sff-coin)" stroke="#8a5a12" stroke-width="1"/><text y="5" fill="#5a3c0a">F</text></g>
    <g transform="translate(250 48) rotate(10)"><circle r="13" fill="url(#sff-coin)" stroke="#8a5a12" stroke-width="1"/><text y="5" fill="#5a3c0a">F</text></g>
    <g transform="translate(118 118) rotate(18)"><circle r="11" fill="url(#sff-coin)" stroke="#8a5a12" stroke-width="1"/><text y="4" font-size="12" fill="#5a3c0a">F</text></g>
    <g transform="translate(288 110) rotate(-16)"><circle r="11" fill="url(#sff-coin)" stroke="#8a5a12" stroke-width="1"/><text y="4" font-size="12" fill="#5a3c0a">F</text></g>
    <g transform="translate(206 40) rotate(6)"><circle r="10" fill="url(#sff-coin)" stroke="#8a5a12" stroke-width="1"/><text y="4" font-size="11" fill="#5a3c0a">F</text></g>
  </g>

  <rect width="400" height="300" filter="url(#sff-grain)" opacity=".05"/>
  <rect width="400" height="300" fill="url(#sff-vig)"/>
</svg>
