<svg viewBox="0 0 400 300" xmlns="http://www.w3.org/2000/svg" role="img" aria-label="Sparse Activation — a neural grid lights only a few nodes that surge a whole row of token-fish with plus-attack arrows and Ship It speed lines">
  <defs>
    <radialGradient id="sa-bg" cx="50%" cy="26%" r="92%">
      <stop offset="0%" stop-color="#0F3E40"/><stop offset="55%" stop-color="#0A2A2E"/><stop offset="100%" stop-color="#05181A"/>
    </radialGradient>
    <radialGradient id="sa-node" cx="40%" cy="35%" r="70%">
      <stop offset="0%" stop-color="#FFE8C8"/><stop offset="55%" stop-color="#FF8A3D"/><stop offset="100%" stop-color="#B5521A"/>
    </radialGradient>
    <radialGradient id="sa-glow" cx="50%" cy="50%" r="50%">
      <stop offset="0%" stop-color="#FF8A3D" stop-opacity=".4"/><stop offset="100%" stop-color="#FF8A3D" stop-opacity="0"/>
    </radialGradient>
    <linearGradient id="sa-fish" x1="0" y1="0" x2="0" y2="1">
      <stop offset="0%" stop-color="#FFD9A8"/><stop offset="100%" stop-color="#FF8A3D"/>
    </linearGradient>
    <filter id="sa-soft" x="-40%" y="-40%" width="180%" height="180%"><feGaussianBlur stdDeviation="8"/></filter>
    <filter id="sa-grain"><feTurbulence type="fractalNoise" baseFrequency="0.9" numOctaves="2" stitchTiles="stitch"/><feColorMatrix type="matrix" values="0 0 0 0 0  0 0 0 0 0  0 0 0 0 0  0 0 0 .5 0"/></filter>
    <radialGradient id="sa-vig" cx="50%" cy="46%" r="72%"><stop offset="58%" stop-color="#000" stop-opacity="0"/><stop offset="100%" stop-color="#000" stop-opacity=".55"/></radialGradient>
    <g id="sa-fish-g">
      <path d="M0 0 q9 -7 18 0 q-9 7 -18 0 Z" fill="url(#sa-fish)"/>
      <path d="M18 0 l8 -6 l0 12 z" fill="#E0702A"/>
      <circle cx="5" cy="0" r="1.8" fill="#06181A"/>
    </g>
  </defs>

  <rect width="400" height="300" fill="url(#sa-bg)"/>
  <g filter="url(#sa-soft)" opacity=".6"><ellipse cx="160" cy="110" rx="150" ry="90" fill="#FF8A3D" opacity=".12"/><ellipse cx="250" cy="220" rx="150" ry="70" fill="#0E5E63" opacity=".5"/></g>
  <g opacity=".7"><rect x="0" y="232" width="400" height="68" fill="#072024"/></g>

  <!-- the sparse neural grid (upper-left), only a few nodes lit -->
  <g transform="translate(40 36)">
    <!-- connections -->
    <g stroke="#1E4A4E" stroke-width="1.2" opacity=".6">
      <line x1="10" y1="10" x2="70" y2="40"/><line x1="10" y1="50" x2="70" y2="40"/><line x1="10" y1="90" x2="70" y2="80"/>
      <line x1="70" y1="40" x2="130" y2="20"/><line x1="70" y1="80" x2="130" y2="60"/><line x1="70" y1="40" x2="130" y2="60"/><line x1="10" y1="50" x2="70" y2="80"/>
    </g>
    <!-- lit connections (sparse) -->
    <g stroke="#FF8A3D" stroke-width="2.2" opacity=".9"><line x1="10" y1="50" x2="70" y2="40"/><line x1="70" y1="40" x2="130" y2="20"/></g>
    <!-- dim nodes -->
    <g fill="#13484C" stroke="#1E4A4E" stroke-width="1"><circle cx="10" cy="10" r="6"/><circle cx="10" cy="90" r="6"/><circle cx="70" cy="80" r="6"/><circle cx="130" cy="60" r="6"/></g>
    <!-- lit nodes (the activated few) -->
    <circle cx="10" cy="50" r="8" fill="url(#sa-node)"/><circle cx="70" cy="40" r="9" fill="url(#sa-node)"/><circle cx="130" cy="20" r="8" fill="url(#sa-node)"/>
  </g>

  <!-- surge beam from the grid to the fish row -->
  <path d="M170 56 q40 60 30 130" fill="none" stroke="#FFD9A8" stroke-width="3" stroke-dasharray="4 5" opacity=".7"/>

  <!-- the row of fish being surged, each with +Attack arrow + ship-it streaks -->
  <g>
    <g transform="translate(96 196) scale(1.2)"><use href="#sa-fish-g"/></g>
    <g transform="translate(170 188) scale(1.3)"><use href="#sa-fish-g"/></g>
    <g transform="translate(250 198) scale(1.25)"><use href="#sa-fish-g"/></g>
    <g transform="translate(326 190) scale(1.3)"><use href="#sa-fish-g"/></g>
    <!-- +2 attack arrows above each -->
    <g fill="#FF5C5C">
      <path d="M100 168 l7 -12 l7 12 l-4 0 l0 8 l-6 0 l0 -8 z"/>
      <path d="M178 158 l7 -12 l7 12 l-4 0 l0 8 l-6 0 l0 -8 z"/>
      <path d="M256 168 l7 -12 l7 12 l-4 0 l0 8 l-6 0 l0 -8 z"/>
      <path d="M334 160 l7 -12 l7 12 l-4 0 l0 8 l-6 0 l0 -8 z"/>
    </g>
    <!-- ship-it speed lines -->
    <g stroke="#FFD9A8" stroke-width="2" opacity=".55"><line x1="60" y1="200" x2="80" y2="200"/><line x1="138" y1="194" x2="158" y2="194"/><line x1="218" y1="202" x2="238" y2="202"/></g>
  </g>

  <g transform="translate(330 56)"><rect x="-34" y="-13" width="68" height="26" rx="13" fill="#06181A" stroke="#FF5C5C" stroke-width="1.2"/><text x="0" y="5" font-family="JetBrains Mono,monospace" font-size="11" fill="#FF5C5C" text-anchor="middle" font-weight="700">+2 ATK</text></g>

  <rect width="400" height="300" filter="url(#sa-grain)" opacity=".05"/>
  <rect width="400" height="300" fill="url(#sa-vig)"/>
</svg>
