<svg viewBox="0 0 400 300" xmlns="http://www.w3.org/2000/svg" role="img" aria-label="Sunset Protocol — a datacenter twilight sun sets over the racks as a decommission wave fades a whole row of model silhouettes on both sides">
  <defs>
    <radialGradient id="sp-bg" cx="50%" cy="58%" r="95%">
      <stop offset="0%" stop-color="#2A2C5A"/><stop offset="48%" stop-color="#14193A"/><stop offset="100%" stop-color="#0A0C1E"/>
    </radialGradient>
    <radialGradient id="sp-sun" cx="50%" cy="50%" r="50%">
      <stop offset="0%" stop-color="#FFE0B0"/><stop offset="35%" stop-color="#FF8A3D"/><stop offset="75%" stop-color="#B14DA8"/><stop offset="100%" stop-color="#4D8DF0" stop-opacity="0"/>
    </radialGradient>
    <linearGradient id="sp-wave" x1="0" y1="0" x2="0" y2="1">
      <stop offset="0%" stop-color="#FFB36A" stop-opacity=".55"/><stop offset="100%" stop-color="#B14DA8" stop-opacity="0"/>
    </linearGradient>
    <filter id="sp-soft" x="-40%" y="-40%" width="180%" height="180%"><feGaussianBlur stdDeviation="8"/></filter>
    <filter id="sp-grain"><feTurbulence type="fractalNoise" baseFrequency="0.9" numOctaves="2" stitchTiles="stitch"/><feColorMatrix type="matrix" values="0 0 0 0 0  0 0 0 0 0  0 0 0 0 0  0 0 0 .5 0"/></filter>
    <radialGradient id="sp-vig" cx="50%" cy="46%" r="72%"><stop offset="58%" stop-color="#000" stop-opacity="0"/><stop offset="100%" stop-color="#000" stop-opacity=".55"/></radialGradient>
  </defs>

  <rect width="400" height="300" fill="url(#sp-bg)"/>

  <!-- the setting datacenter sun -->
  <circle cx="200" cy="150" r="120" fill="url(#sp-sun)"/>
  <circle cx="200" cy="150" r="40" fill="#FFE8C8" opacity=".85"/>

  <!-- receding server-rack skyline silhouettes against the sun -->
  <g fill="#0C0E22" opacity=".88">
    <rect x="24" y="120" width="26" height="80"/><rect x="58" y="108" width="20" height="92"/><rect x="92" y="132" width="24" height="68"/>
    <rect x="286" y="116" width="24" height="84"/><rect x="318" y="104" width="20" height="96"/><rect x="350" y="128" width="26" height="72"/>
  </g>
  <!-- horizon -->
  <rect x="0" y="198" width="400" height="4" fill="#3a2f5a" opacity=".6"/>

  <!-- the decommission wave sweeping the board -->
  <path d="M0 206 q200 -40 400 0 l0 30 q-200 -34 -400 0 z" fill="url(#sp-wave)"/>
  <path d="M0 206 q200 -40 400 0" fill="none" stroke="#FFB36A" stroke-width="1.4" opacity=".6"/>

  <!-- row of model silhouettes fading out (both sides) -->
  <g>
    <!-- nearest, mid-fade -->
    <g transform="translate(70 220)" opacity=".7"><path d="M-18 36 L-12 -8 L0 -22 L12 -8 L18 36 Z" fill="#0C0E22"/><path d="M-16 0 l16 -2 l16 2" stroke="#FFB36A" stroke-width="2" opacity=".5" fill="none"/></g>
    <g transform="translate(140 226)" opacity=".5"><path d="M-16 32 L-10 -6 L0 -18 L10 -6 L16 32 Z" fill="#0C0E22"/></g>
    <g transform="translate(200 230)" opacity=".35"><path d="M-15 28 L-9 -4 L0 -16 L9 -4 L15 28 Z" fill="#0C0E22"/></g>
    <g transform="translate(262 226)" opacity=".45"><path d="M-16 32 L-10 -6 L0 -18 L10 -6 L16 32 Z" fill="#0C0E22"/></g>
    <g transform="translate(330 220)" opacity=".62"><path d="M-18 36 L-12 -8 L0 -22 L12 -8 L18 36 Z" fill="#0C0E22"/></g>
    <!-- a few dissolving particles rising -->
    <g fill="#FFB36A" opacity=".7"><circle cx="92" cy="196" r="2"/><circle cx="176" cy="200" r="1.6"/><circle cx="250" cy="194" r="2"/><circle cx="318" cy="198" r="1.6"/></g>
  </g>

  <!-- AoE "−3 to ALL" tag -->
  <g transform="translate(200 70)">
    <rect x="-46" y="-15" width="92" height="30" rx="15" fill="#0C0E22" stroke="#FF8A3D" stroke-width="1.4"/>
    <text x="0" y="6" font-family="JetBrains Mono,monospace" font-size="12" fill="#FF8A3D" text-anchor="middle" font-weight="700">−3 to ALL</text>
  </g>

  <rect width="400" height="300" filter="url(#sp-grain)" opacity=".05"/>
  <rect width="400" height="300" fill="url(#sp-vig)"/>
</svg>
