<svg viewBox="0 0 400 300" xmlns="http://www.w3.org/2000/svg" role="img" aria-label="Surprise Keynote — a presenter whips a cloth off a hidden sleek glass model under a blinding Launch Day beam">
  <defs>
    <radialGradient id="sk-bg" cx="58%" cy="24%" r="95%">
      <stop offset="0%" stop-color="#1A3E2E"/><stop offset="52%" stop-color="#0D1A14"/><stop offset="100%" stop-color="#060B09"/>
    </radialGradient>
    <linearGradient id="sk-chrome" x1="0" y1="0" x2="1" y2="1">
      <stop offset="0%" stop-color="#F2FFF9"/><stop offset="45%" stop-color="#86ECC6"/><stop offset="100%" stop-color="#0E6346"/>
    </linearGradient>
    <linearGradient id="sk-beam" x1="0" y1="0" x2="0" y2="1">
      <stop offset="0%" stop-color="#FFFDF2" stop-opacity=".9"/><stop offset="60%" stop-color="#7FF5C0" stop-opacity=".35"/><stop offset="100%" stop-color="#7FF5C0" stop-opacity="0"/>
    </linearGradient>
    <radialGradient id="sk-burst" cx="50%" cy="50%" r="50%">
      <stop offset="0%" stop-color="#FFFFFF"/><stop offset="35%" stop-color="#EAFBF3"/><stop offset="100%" stop-color="#7FF5C0" stop-opacity="0"/>
    </radialGradient>
    <linearGradient id="sk-cloth" x1="0" y1="0" x2="1" y2="1">
      <stop offset="0%" stop-color="#16382A"/><stop offset="100%" stop-color="#0A1F18"/>
    </linearGradient>
    <filter id="sk-soft" x="-40%" y="-40%" width="180%" height="180%"><feGaussianBlur stdDeviation="8"/></filter>
    <filter id="sk-grain"><feTurbulence type="fractalNoise" baseFrequency="0.9" numOctaves="2" stitchTiles="stitch"/><feColorMatrix type="matrix" values="0 0 0 0 0  0 0 0 0 0  0 0 0 0 0  0 0 0 .5 0"/></filter>
    <radialGradient id="sk-vig" cx="50%" cy="46%" r="72%"><stop offset="58%" stop-color="#000" stop-opacity="0"/><stop offset="100%" stop-color="#000" stop-opacity=".58"/></radialGradient>
  </defs>

  <rect width="400" height="300" fill="url(#sk-bg)"/>

  <g filter="url(#sk-soft)" opacity=".55">
    <ellipse cx="248" cy="120" rx="130" ry="90" fill="#19C37D" opacity=".14"/>
    <ellipse cx="120" cy="240" rx="120" ry="50" fill="#0E5E48" opacity=".4"/>
  </g>

  <!-- back racks -->
  <g opacity=".7"><rect x="0" y="222" width="400" height="78" fill="#0A1510"/>
    <g fill="#0E2419"><rect x="14" y="186" width="50" height="46" rx="4"/></g></g>

  <!-- the blinding Launch Day beam -->
  <path d="M248 -10 L150 252 L346 252 Z" fill="url(#sk-beam)"/>
  <ellipse cx="248" cy="256" rx="140" ry="16" fill="#0E2419" opacity=".7"/>

  <!-- pedestal + the revealed sleek glass model -->
  <g transform="translate(248 132)">
    <rect x="-34" y="92" width="68" height="34" rx="4" fill="#0E2C22" stroke="#11704F" stroke-width="1.2"/>
    <ellipse cx="0" cy="92" rx="40" ry="9" fill="#123227"/>
    <!-- glow burst behind the product -->
    <circle cx="0" cy="34" r="56" fill="url(#sk-burst)" opacity=".85"/>
    <!-- the new glass model: a sharp ascending obelisk -->
    <path d="M0 -34 L26 70 L-26 70 Z" fill="url(#sk-chrome)"/>
    <path d="M0 -34 L26 70 L0 70 Z" fill="#0E6346" opacity=".4"/>
    <rect x="-12" y="20" width="24" height="44" rx="4" fill="#06150F" stroke="#19C37D" stroke-width="1.2"/>
    <rect x="-7" y="46" width="14" height="5" rx="2" fill="#5BD68A"/>
    <rect x="-7" y="36" width="14" height="5" rx="2" fill="#3DD6F0"/>
    <path d="M0 -34 L26 70" fill="none" stroke="#FFFDF2" stroke-width="2" opacity=".9" stroke-linecap="round"/>
    <!-- "one more thing" tag -->
    <text x="0" y="-46" font-family="JetBrains Mono, monospace" font-size="9" fill="#7FF5C0" text-anchor="middle" font-weight="700">one more thing</text>
  </g>

  <!-- the cloth flying off, upper-left -->
  <path d="M70 90 q40 -28 96 -16 q-22 18 -10 40 q-30 -10 -50 6 q-6 -22 -36 -30 z" fill="url(#sk-cloth)" stroke="#11704F" stroke-width="1" opacity=".95"/>
  <path d="M70 90 q40 -28 96 -16" fill="none" stroke="#7FE6BE" stroke-width="1.2" opacity=".5"/>

  <!-- silhouetted presenter mid-flourish, lower-left -->
  <g fill="#06120D">
    <ellipse cx="92" cy="256" rx="22" ry="6" opacity=".7"/>
    <path d="M84 192 q9 -10 18 -6 l5 30 q3 18 -3 40 l-22 0 q-5 -32 2 -64 z"/>
    <circle cx="93" cy="182" r="11"/>
    <path d="M84 182 q9 -7 18 0" fill="none" stroke="#19C37D" stroke-width="2"/>
    <circle cx="84" cy="186" r="2.2" fill="#7FF5C0"/>
    <!-- arm holding the cloth corner, flung up -->
    <path d="M100 198 L70 96 L78 92 L112 192 Z"/>
  </g>
  <path d="M84 192 q9 -10 18 -6" fill="none" stroke="#FFF6E0" stroke-width="1.5" opacity=".7"/>

  <rect width="400" height="300" filter="url(#sk-grain)" opacity=".05"/>
  <rect width="400" height="300" fill="url(#sk-vig)"/>
</svg>
