<svg viewBox="0 0 400 300" xmlns="http://www.w3.org/2000/svg" role="img" aria-label="The Long-Horizon Plan — a roadmap stretching to a distant horizon sun as a sweeping wave of safety energy washes over a row of enemy models">
  <defs>
    <radialGradient id="lhp-bg" cx="50%" cy="44%" r="95%">
      <stop offset="0%" stop-color="#332658"/><stop offset="50%" stop-color="#1A1430"/><stop offset="100%" stop-color="#0E0A1C"/>
    </radialGradient>
    <radialGradient id="lhp-sun" cx="50%" cy="50%" r="50%">
      <stop offset="0%" stop-color="#FFF4D6"/><stop offset="40%" stop-color="#F4C04C"/><stop offset="100%" stop-color="#A07CFF" stop-opacity="0"/>
    </radialGradient>
    <linearGradient id="lhp-road" x1="0" y1="0" x2="0" y2="1">
      <stop offset="0%" stop-color="#CDB8FF"/><stop offset="100%" stop-color="#3E3070"/>
    </linearGradient>
    <linearGradient id="lhp-wave" x1="0" y1="0" x2="1" y2="0">
      <stop offset="0%" stop-color="#CFE0F2" stop-opacity="0"/><stop offset="55%" stop-color="#CDB8FF" stop-opacity=".7"/><stop offset="100%" stop-color="#9FB3C8" stop-opacity=".9"/>
    </linearGradient>
    <filter id="lhp-soft" x="-40%" y="-40%" width="180%" height="180%"><feGaussianBlur stdDeviation="8"/></filter>
    <filter id="lhp-grain"><feTurbulence type="fractalNoise" baseFrequency="0.9" numOctaves="2" stitchTiles="stitch"/><feColorMatrix type="matrix" values="0 0 0 0 0  0 0 0 0 0  0 0 0 0 0  0 0 0 .5 0"/></filter>
    <radialGradient id="lhp-vig" cx="50%" cy="46%" r="72%"><stop offset="58%" stop-color="#000" stop-opacity="0"/><stop offset="100%" stop-color="#000" stop-opacity=".55"/></radialGradient>
  </defs>

  <rect width="400" height="300" fill="url(#lhp-bg)"/>

  <!-- distant horizon sun -->
  <circle cx="200" cy="120" r="86" fill="url(#lhp-sun)"/>
  <circle cx="200" cy="120" r="26" fill="#FFF4D6" opacity=".9"/>

  <!-- horizon line + receding glass towers -->
  <g filter="url(#lhp-soft)" opacity=".55">
    <rect x="150" y="96" width="14" height="40" fill="#241C3A"/><rect x="238" y="92" width="16" height="44" fill="#241C3A"/>
    <rect x="120" y="104" width="10" height="32" fill="#1E1640"/><rect x="270" y="102" width="12" height="34" fill="#1E1640"/>
  </g>
  <rect x="0" y="134" width="400" height="4" fill="#6F5BA8" opacity=".5"/>

  <!-- the long roadmap receding to the sun (perspective) -->
  <path d="M150 300 L186 138 L214 138 L250 300 Z" fill="url(#lhp-road)" opacity=".9"/>
  <!-- dashed center line -->
  <g fill="#F0E6D2" opacity=".8">
    <path d="M198 290 l4 0 l-1 -22 l-2 0 z"/><path d="M199 252 l2 0 l-1 -18 l0 0 z"/><path d="M199.5 222 l1 0 l-1 -14 z"/><path d="M199.7 198 l.6 0 l-.4 -10 z"/>
  </g>
  <!-- milestone markers along the plan -->
  <g fill="#A07CFF"><circle cx="172" cy="240" r="5"/><circle cx="228" cy="240" r="5"/><circle cx="182" cy="190" r="4"/><circle cx="218" cy="190" r="4"/></g>

  <!-- the sweeping safety wave -->
  <path d="M0 196 q100 -34 400 0 l0 14 q-200 -30 -400 2 z" fill="url(#lhp-wave)"/>
  <path d="M0 196 q100 -34 400 0" fill="none" stroke="#F0E6D2" stroke-width="1.4" opacity=".7"/>

  <!-- row of enemy models being washed over (front, fading) -->
  <g>
    <g transform="translate(66 214)" opacity=".85">
      <path d="M-18 40 L-12 -6 L0 -20 L12 -6 L18 40 Z" fill="#39304F"/><path d="M-8 0 l6 6 l-2 -10z" fill="#E25555" opacity=".7"/>
      <path d="M-16 4 l16 -2 l16 2" fill="none" stroke="#CFE0F2" stroke-width="2" opacity=".7"/>
    </g>
    <g transform="translate(334 214)" opacity=".7">
      <path d="M-18 40 L-12 -6 L0 -20 L12 -6 L18 40 Z" fill="#39304F"/>
      <path d="M-16 4 l16 -2 l16 2" fill="none" stroke="#CFE0F2" stroke-width="2" opacity=".7"/>
    </g>
    <g transform="translate(112 230) scale(.7)" opacity=".5"><path d="M-18 40 L-12 -6 L0 -20 L12 -6 L18 40 Z" fill="#2A2342"/></g>
    <g transform="translate(292 230) scale(.7)" opacity=".5"><path d="M-18 40 L-12 -6 L0 -20 L12 -6 L18 40 Z" fill="#2A2342"/></g>
  </g>

  <text x="200" y="290" font-family="JetBrains Mono,monospace" font-size="9" fill="#CDB8FF" text-anchor="middle" opacity=".8">// the long-horizon plan</text>

  <rect width="400" height="300" filter="url(#lhp-grain)" opacity=".05"/>
  <rect width="400" height="300" fill="url(#lhp-vig)"/>
</svg>
