<svg viewBox="0 0 400 300" xmlns="http://www.w3.org/2000/svg" role="img" aria-label="Token Faucet — a glowing amber faucet pouring out a school of tiny identical 1/1 token-fish, a cheap-and-fast swarm">
  <defs>
    <radialGradient id="tf-bg" cx="40%" cy="24%" r="95%">
      <stop offset="0%" stop-color="#0F3E40"/><stop offset="55%" stop-color="#0A2A2E"/><stop offset="100%" stop-color="#05181A"/>
    </radialGradient>
    <linearGradient id="tf-tap" x1="0" y1="0" x2="0" y2="1">
      <stop offset="0%" stop-color="#FFD9A8"/><stop offset="100%" stop-color="#C75A1E"/>
    </linearGradient>
    <linearGradient id="tf-stream" x1="0" y1="0" x2="1" y2="1">
      <stop offset="0%" stop-color="#FFD9A8" stop-opacity=".8"/><stop offset="100%" stop-color="#FF8A3D" stop-opacity=".15"/>
    </linearGradient>
    <radialGradient id="tf-glow" cx="50%" cy="50%" r="50%">
      <stop offset="0%" stop-color="#FF8A3D" stop-opacity=".4"/><stop offset="100%" stop-color="#FF8A3D" stop-opacity="0"/>
    </radialGradient>
    <filter id="tf-soft" x="-40%" y="-40%" width="180%" height="180%"><feGaussianBlur stdDeviation="8"/></filter>
    <filter id="tf-grain"><feTurbulence type="fractalNoise" baseFrequency="0.9" numOctaves="2" stitchTiles="stitch"/><feColorMatrix type="matrix" values="0 0 0 0 0  0 0 0 0 0  0 0 0 0 0  0 0 0 .5 0"/></filter>
    <radialGradient id="tf-vig" cx="50%" cy="46%" r="72%"><stop offset="58%" stop-color="#000" stop-opacity="0"/><stop offset="100%" stop-color="#000" stop-opacity=".55"/></radialGradient>
    <!-- one token-fish, reused as a swarm -->
    <g id="tf-fish">
      <path d="M0 0 q8 -6 16 0 q-8 6 -16 0 Z" fill="#FFB36A"/>
      <path d="M16 0 l7 -5 l0 10 z" fill="#FF8A3D"/>
      <circle cx="4" cy="0" r="1.6" fill="#06181A"/>
    </g>
  </defs>

  <rect width="400" height="300" fill="url(#tf-bg)"/>
  <g filter="url(#tf-soft)" opacity=".6"><ellipse cx="140" cy="100" rx="130" ry="80" fill="#FF8A3D" opacity=".13"/><ellipse cx="240" cy="220" rx="150" ry="70" fill="#0E5E63" opacity=".5"/></g>
  <g opacity=".7"><rect x="0" y="232" width="400" height="68" fill="#072024"/></g>

  <!-- the faucet, upper-left -->
  <g transform="translate(92 60)">
    <circle cx="20" cy="20" r="40" fill="url(#tf-glow)"/>
    <!-- wall pipe -->
    <rect x="-30" y="6" width="40" height="20" rx="6" fill="url(#tf-tap)"/>
    <!-- spout curving down -->
    <path d="M10 6 q40 0 40 36 l0 14 l-22 0 l0 -14 q0 -14 -18 -14 z" fill="url(#tf-tap)"/>
    <!-- handle -->
    <rect x="-6" y="-16" width="32" height="10" rx="5" fill="#FFB36A"/>
    <rect x="6" y="-22" width="8" height="12" rx="3" fill="#C75A1E"/>
    <!-- rim light -->
    <path d="M10 6 q40 0 40 36" fill="none" stroke="#FFF6E0" stroke-width="1.6" opacity=".6"/>
  </g>

  <!-- the pouring stream of token-fish -->
  <path d="M140 110 q6 40 60 70 q70 38 170 36 l0 26 q-110 4 -190 -40 q-58 -32 -64 -88 z" fill="url(#tf-stream)" opacity=".4"/>

  <!-- the swarm of identical 1/1 fish -->
  <g>
    <g transform="translate(150 128) scale(1.1)"><use href="#tf-fish"/></g>
    <g transform="translate(186 150) rotate(10) scale(1.2)"><use href="#tf-fish"/></g>
    <g transform="translate(216 138) rotate(-8)"><use href="#tf-fish"/></g>
    <g transform="translate(238 174) rotate(14) scale(1.25)"><use href="#tf-fish"/></g>
    <g transform="translate(276 158) rotate(-6) scale(1.1)"><use href="#tf-fish"/></g>
    <g transform="translate(300 188) rotate(12) scale(1.3)"><use href="#tf-fish"/></g>
    <g transform="translate(330 168) rotate(-10) scale(1.15)"><use href="#tf-fish"/></g>
    <g transform="translate(262 206) rotate(18) scale(1.1)"><use href="#tf-fish"/></g>
    <g transform="translate(348 198) rotate(6) scale(1.2)"><use href="#tf-fish"/></g>
    <g transform="translate(200 196) rotate(20)"><use href="#tf-fish"/></g>
  </g>
  <!-- their 1/1 stat tags -->
  <g font-family="JetBrains Mono,monospace" font-size="8" fill="#FFD9A8" opacity=".8">
    <text x="244" y="196">1/1</text><text x="316" y="210">1/1</text>
  </g>

  <text x="200" y="288" font-family="JetBrains Mono,monospace" font-size="9" fill="#FF8A3D" text-anchor="middle" opacity=".8">// summon ×2 (×3 if combo)</text>

  <rect width="400" height="300" filter="url(#tf-grain)" opacity=".05"/>
  <rect width="400" height="300" fill="url(#tf-vig)"/>
</svg>
