<svg viewBox="0 0 400 300" xmlns="http://www.w3.org/2000/svg" role="img" aria-label="Total Addressable Market — a colossal gold market-cap arrow firing a beam straight through a shattered guardrail wall toward the off-frame enemy CEO">
  <defs>
    <radialGradient id="tam-bg" cx="32%" cy="34%" r="100%">
      <stop offset="0%" stop-color="#1A3E2E"/><stop offset="52%" stop-color="#0D1A14"/><stop offset="100%" stop-color="#060B09"/>
    </radialGradient>
    <linearGradient id="tam-gold" x1="0" y1="1" x2="1" y2="0">
      <stop offset="0%" stop-color="#8a5a12"/><stop offset="45%" stop-color="#F4C04C"/><stop offset="100%" stop-color="#FFF0C0"/>
    </linearGradient>
    <linearGradient id="tam-beam" x1="0" y1="0" x2="1" y2="0">
      <stop offset="0%" stop-color="#FFE9A8" stop-opacity="0"/><stop offset="40%" stop-color="#FFE9A8" stop-opacity=".85"/><stop offset="100%" stop-color="#FFFFFF"/>
    </linearGradient>
    <radialGradient id="tam-impact" cx="50%" cy="50%" r="50%">
      <stop offset="0%" stop-color="#FFFFFF"/><stop offset="40%" stop-color="#FFE9A8"/><stop offset="100%" stop-color="#F4C04C" stop-opacity="0"/>
    </radialGradient>
    <filter id="tam-soft" x="-40%" y="-40%" width="180%" height="180%"><feGaussianBlur stdDeviation="8"/></filter>
    <filter id="tam-glow" x="-30%" y="-30%" width="160%" height="160%"><feGaussianBlur stdDeviation="3"/></filter>
    <filter id="tam-grain"><feTurbulence type="fractalNoise" baseFrequency="0.9" numOctaves="2" stitchTiles="stitch"/><feColorMatrix type="matrix" values="0 0 0 0 0  0 0 0 0 0  0 0 0 0 0  0 0 0 .5 0"/></filter>
    <radialGradient id="tam-vig" cx="50%" cy="46%" r="72%"><stop offset="58%" stop-color="#000" stop-opacity="0"/><stop offset="100%" stop-color="#000" stop-opacity=".55"/></radialGradient>
  </defs>

  <rect width="400" height="300" fill="url(#tam-bg)"/>

  <!-- legendary gold corner rays -->
  <g opacity=".5"><path d="M0 0 L130 0 L0 96 Z" fill="url(#tam-gold)" opacity=".12"/><path d="M400 300 L270 300 L400 204 Z" fill="url(#tam-gold)" opacity=".12"/></g>

  <g filter="url(#tam-soft)" opacity=".55">
    <ellipse cx="130" cy="150" rx="130" ry="110" fill="#19C37D" opacity=".14"/>
    <ellipse cx="320" cy="150" rx="110" ry="90" fill="#F4C04C" opacity=".12"/>
  </g>

  <!-- back racks -->
  <g opacity=".7"><rect x="0" y="230" width="400" height="70" fill="#0A1510"/></g>

  <!-- a shattered guardrail wall being ignored/blasted through (right side) -->
  <g transform="translate(286 92)">
    <rect x="0" y="0" width="34" height="150" rx="6" fill="#16382A" stroke="#5BD68A" stroke-width="1.4" opacity=".8"/>
    <!-- guardrail shield motif -->
    <path d="M17 30 l12 8 v18 q0 14 -12 20 q-12 -6 -12 -20 v-18 z" fill="none" stroke="#5BD68A" stroke-width="1.4" opacity=".7"/>
    <!-- the wall fractured where the beam passes -->
    <path d="M-2 96 l18 -10 l-10 18 l16 -6 l-8 16 l20 -4" fill="none" stroke="#9FB3C8" stroke-width="2" opacity=".9"/>
    <!-- flying debris -->
    <path d="M40 86 l12 -3 l-3 12 z" fill="#9FB3C8" opacity=".8"/>
    <path d="M44 110 l10 4 l-8 6 z" fill="#5BD68A" opacity=".6"/>
  </g>

  <!-- the colossal market-cap arrow (big rising bar chart morphing into an arrow) -->
  <g>
    <!-- ascending bars -->
    <rect x="40" y="190" width="26" height="60" rx="3" fill="url(#tam-gold)" opacity=".6"/>
    <rect x="72" y="160" width="26" height="90" rx="3" fill="url(#tam-gold)" opacity=".75"/>
    <rect x="104" y="120" width="26" height="130" rx="3" fill="url(#tam-gold)" opacity=".9"/>
    <!-- the giant arrow firing right -->
    <path d="M120 150 L210 150 L210 124 L268 168 L210 212 L210 186 L120 186 Z" fill="url(#tam-gold)" stroke="#FFF0C0" stroke-width="1.5"/>
    <path d="M120 150 L210 150 L210 124 L268 168" fill="none" stroke="#FFFDF2" stroke-width="2" opacity=".8" stroke-linecap="round"/>
    <text x="150" y="176" font-family="'Space Grotesk',sans-serif" font-weight="800" font-size="20" fill="#5a3c0a">TAM</text>
  </g>

  <!-- the beam piercing through the wall to the off-frame CEO -->
  <rect x="210" y="160" width="190" height="16" fill="url(#tam-beam)" filter="url(#tam-glow)" opacity=".95"/>
  <circle cx="372" cy="168" r="34" fill="url(#tam-impact)" opacity=".9"/>
  <text x="372" y="172" font-family="JetBrains Mono,monospace" font-size="11" fill="#5a3c0a" text-anchor="middle" font-weight="700">8</text>

  <rect width="400" height="300" filter="url(#tam-grain)" opacity=".05"/>
  <rect width="400" height="300" fill="url(#tam-vig)"/>
</svg>
