<svg viewBox="0 0 400 300" xmlns="http://www.w3.org/2000/svg" role="img" aria-label="TPU Megapod — a colossal stacked tower of TPU modules humming with cyan compute, three charge cells, clean modular grid">
  <defs>
    <radialGradient id="tm-bg" cx="50%" cy="26%" r="92%">
      <stop offset="0%" stop-color="#15294A"/><stop offset="55%" stop-color="#0C1426"/><stop offset="100%" stop-color="#060B16"/>
    </radialGradient>
    <linearGradient id="tm-mod" x1="0" y1="0" x2="0" y2="1">
      <stop offset="0%" stop-color="#5E8FE0"/><stop offset="100%" stop-color="#1E3E72"/>
    </linearGradient>
    <linearGradient id="tm-side" x1="0" y1="0" x2="1" y2="0">
      <stop offset="0%" stop-color="#16294A"/><stop offset="100%" stop-color="#0C1A33"/>
    </linearGradient>
    <radialGradient id="tm-core" cx="50%" cy="50%" r="55%">
      <stop offset="0%" stop-color="#BFF6FF"/><stop offset="55%" stop-color="#22E0E0"/><stop offset="100%" stop-color="#0A6E7A"/>
    </radialGradient>
    <radialGradient id="tm-glow" cx="50%" cy="50%" r="50%">
      <stop offset="0%" stop-color="#22E0E0" stop-opacity=".4"/><stop offset="100%" stop-color="#22E0E0" stop-opacity="0"/>
    </radialGradient>
    <filter id="tm-soft" x="-40%" y="-40%" width="180%" height="180%"><feGaussianBlur stdDeviation="8"/></filter>
    <filter id="tm-grain"><feTurbulence type="fractalNoise" baseFrequency="0.9" numOctaves="2" stitchTiles="stitch"/><feColorMatrix type="matrix" values="0 0 0 0 0  0 0 0 0 0  0 0 0 0 0  0 0 0 .5 0"/></filter>
    <radialGradient id="tm-vig" cx="50%" cy="46%" r="72%"><stop offset="58%" stop-color="#000" stop-opacity="0"/><stop offset="100%" stop-color="#000" stop-opacity=".55"/></radialGradient>
  </defs>

  <rect width="400" height="300" fill="url(#tm-bg)"/>
  <g filter="url(#tm-soft)" opacity=".6"><ellipse cx="200" cy="140" rx="130" ry="110" fill="#22E0E0" opacity=".10"/><ellipse cx="200" cy="120" rx="100" ry="90" fill="#4D8DF0" opacity=".14"/></g>
  <g opacity=".7"><rect x="0" y="244" width="400" height="56" fill="#0A1326"/></g>
  <ellipse cx="200" cy="254" rx="110" ry="14" fill="#0F1F3A" opacity=".7"/>
  <circle cx="200" cy="140" r="116" fill="url(#tm-glow)"/>

  <!-- the colossal stacked megapod (isometric tower) -->
  <g transform="translate(200 0)">
    <!-- 4 stacked modules, each a slab with a cyan core slit -->
    <g>
      <!-- module 4 (top) -->
      <g transform="translate(0 56)">
        <path d="M-60 0 L0 -22 L60 0 L0 22 Z" fill="#3E6FC0"/>
        <path d="M-60 0 L0 22 L0 44 L-60 22 Z" fill="url(#tm-side)"/>
        <path d="M60 0 L0 22 L0 44 L60 22 Z" fill="#16335c"/>
        <rect x="-30" y="6" width="60" height="6" rx="3" fill="url(#tm-core)" transform="skewX(0)"/>
      </g>
      <!-- module 3 -->
      <g transform="translate(0 102)">
        <path d="M-66 0 L0 -24 L66 0 L0 24 Z" fill="url(#tm-mod)"/>
        <path d="M-66 0 L0 24 L0 50 L-66 26 Z" fill="url(#tm-side)"/>
        <path d="M66 0 L0 24 L0 50 L66 26 Z" fill="#16335c"/>
        <rect x="-50" y="16" width="40" height="7" rx="3" fill="url(#tm-core)"/>
        <rect x="12" y="16" width="40" height="7" rx="3" fill="url(#tm-core)"/>
      </g>
      <!-- module 2 -->
      <g transform="translate(0 150)">
        <path d="M-72 0 L0 -26 L72 0 L0 26 Z" fill="#3E6FC0"/>
        <path d="M-72 0 L0 26 L0 54 L-72 28 Z" fill="url(#tm-side)"/>
        <path d="M72 0 L0 26 L0 54 L72 28 Z" fill="#16335c"/>
        <rect x="-54" y="18" width="44" height="8" rx="3" fill="url(#tm-core)"/>
        <rect x="14" y="18" width="44" height="8" rx="3" fill="url(#tm-core)"/>
      </g>
      <!-- module 1 (base) -->
      <g transform="translate(0 200)">
        <path d="M-78 0 L0 -28 L78 0 L0 28 Z" fill="url(#tm-mod)"/>
        <path d="M-78 0 L0 28 L0 46 L-78 22 Z" fill="url(#tm-side)"/>
        <path d="M78 0 L0 28 L0 46 L78 22 Z" fill="#16335c"/>
      </g>
    </g>
    <!-- top rim light -->
    <path d="M-60 56 L0 34 L60 56" fill="none" stroke="#FFF6E0" stroke-width="1.6" opacity=".6" stroke-linecap="round"/>
    <!-- compute aura at the seams -->
    <g stroke="#BFF6FF" stroke-width="1.2" opacity=".7"><line x1="-58" y1="80" x2="-86" y2="92"/><line x1="58" y1="80" x2="86" y2="92"/></g>
  </g>

  <!-- +2 compute tag and 3 charge cells -->
  <g transform="translate(64 70)">
    <rect x="-34" y="-13" width="68" height="26" rx="13" fill="#0C1426" stroke="#22E0E0" stroke-width="1.3"/>
    <text x="0" y="5" font-family="JetBrains Mono,monospace" font-size="11" fill="#22E0E0" text-anchor="middle" font-weight="700">+2 ⚡</text>
  </g>
  <g transform="translate(318 240)">
    <circle cx="0" r="7" fill="#22E0E0"/><circle cx="18" r="7" fill="#22E0E0"/><circle cx="36" r="7" fill="#22E0E0"/>
    <text x="18" y="22" font-family="JetBrains Mono,monospace" font-size="8" fill="#6FA6F5" text-anchor="middle">3 charges</text>
  </g>

  <rect width="400" height="300" filter="url(#tm-grain)" opacity=".05"/>
  <rect width="400" height="300" fill="url(#tm-vig)"/>
</svg>
