<svg viewBox="0 0 400 300" xmlns="http://www.w3.org/2000/svg" role="img" aria-label="Vaporware Teaser — a COMING SOON keynote slide above an empty pedestal where the product is only a wisp of vapor">
  <defs>
    <radialGradient id="vt-bg" cx="50%" cy="22%" r="90%">
      <stop offset="0%" stop-color="#15362A"/>
      <stop offset="55%" stop-color="#0D1A14"/>
      <stop offset="100%" stop-color="#070D0A"/>
    </radialGradient>
    <linearGradient id="vt-slide" x1="0" y1="0" x2="0" y2="1">
      <stop offset="0%" stop-color="#0F2C22"/>
      <stop offset="100%" stop-color="#0A1F18"/>
    </linearGradient>
    <linearGradient id="vt-shine" x1="0" y1="0" x2="1" y2="0">
      <stop offset="0%" stop-color="#7FF5C0" stop-opacity="0"/>
      <stop offset="50%" stop-color="#7FF5C0" stop-opacity=".5"/>
      <stop offset="100%" stop-color="#7FF5C0" stop-opacity="0"/>
    </linearGradient>
    <linearGradient id="vt-spot" x1="0" y1="0" x2="0" y2="1">
      <stop offset="0%" stop-color="#7FF5C0" stop-opacity=".45"/>
      <stop offset="100%" stop-color="#7FF5C0" stop-opacity="0"/>
    </linearGradient>
    <radialGradient id="vt-vapor" cx="50%" cy="60%" r="60%">
      <stop offset="0%" stop-color="#9CF7D4" stop-opacity=".8"/>
      <stop offset="100%" stop-color="#9CF7D4" stop-opacity="0"/>
    </radialGradient>
    <filter id="vt-soft" x="-40%" y="-40%" width="180%" height="180%"><feGaussianBlur stdDeviation="7"/></filter>
    <filter id="vt-grain"><feTurbulence type="fractalNoise" baseFrequency="0.9" numOctaves="2" stitchTiles="stitch"/><feColorMatrix type="matrix" values="0 0 0 0 0  0 0 0 0 0  0 0 0 0 0  0 0 0 .5 0"/></filter>
    <radialGradient id="vt-vig" cx="50%" cy="46%" r="72%"><stop offset="60%" stop-color="#000" stop-opacity="0"/><stop offset="100%" stop-color="#000" stop-opacity=".58"/></radialGradient>
  </defs>

  <rect width="400" height="300" fill="url(#vt-bg)"/>

  <g filter="url(#vt-soft)" opacity=".55">
    <ellipse cx="200" cy="90" rx="150" ry="70" fill="#19C37D" opacity=".14"/>
    <ellipse cx="200" cy="250" rx="170" ry="60" fill="#0E5E48" opacity=".4"/>
  </g>

  <!-- stage floor -->
  <rect x="0" y="232" width="400" height="68" fill="#0A1510"/>
  <ellipse cx="200" cy="232" rx="200" ry="20" fill="#0E2419" opacity=".7"/>

  <!-- twin spotlights -->
  <path d="M150 14 L96 232 L210 232 Z" fill="url(#vt-spot)" opacity=".6"/>
  <path d="M250 14 L190 232 L304 232 Z" fill="url(#vt-spot)" opacity=".5"/>

  <!-- giant floating COMING SOON slide -->
  <g transform="translate(96 40)">
    <rect x="0" y="0" width="208" height="104" rx="8" fill="url(#vt-slide)" stroke="#19C37D" stroke-width="2"/>
    <rect x="0" y="0" width="208" height="104" rx="8" fill="url(#vt-shine)" opacity=".5"/>
    <text x="104" y="46" font-family="'Space Grotesk', Archivo, sans-serif" font-size="26" letter-spacing="2" font-weight="800" fill="#EAFBF3" text-anchor="middle">COMING</text>
    <text x="104" y="78" font-family="'Space Grotesk', Archivo, sans-serif" font-size="26" letter-spacing="6" font-weight="800" fill="#7FF5C0" text-anchor="middle">SOON™</text>
    <!-- announce hype-arrow corner glyph -->
    <path d="M184 16 L192 4 L200 16 L195 16 L195 26 L189 26 L189 16 Z" fill="#7FF5C0"/>
  </g>

  <!-- empty product pedestal -->
  <g transform="translate(200 196)">
    <rect x="-26" y="0" width="52" height="34" rx="4" fill="#0E2C22" stroke="#11704F" stroke-width="1.2"/>
    <ellipse cx="0" cy="0" rx="30" ry="7" fill="#123227"/>
    <!-- the "product" is only vapor -->
    <ellipse cx="0" cy="-14" rx="26" ry="22" fill="url(#vt-vapor)"/>
    <path d="M-10 -8 q-6 -18 4 -26 q-2 16 8 22 q10 -8 6 -22 q12 14 -2 30 z" fill="#9CF7D4" opacity=".35"/>
  </g>

  <!-- silhouetted presenter gesturing at the vapor -->
  <g fill="#06120D">
    <ellipse cx="92" cy="252" rx="22" ry="6" opacity=".7"/>
    <path d="M84 188 q8 -10 18 -6 l6 30 q2 16 -4 40 l-22 0 q-4 -30 2 -64 z"/>
    <circle cx="92" cy="178" r="11"/>
    <!-- headset mic -->
    <path d="M82 178 q10 -8 20 0" fill="none" stroke="#19C37D" stroke-width="2"/>
    <circle cx="83" cy="182" r="2.4" fill="#7FF5C0"/>
    <!-- gesturing arm toward the pedestal -->
    <path d="M100 196 L150 188 L152 196 L104 208 Z"/>
  </g>
  <!-- rim light on presenter -->
  <path d="M84 188 q8 -10 18 -6" fill="none" stroke="#FFF6E0" stroke-width="1.6" opacity=".7"/>

  <rect width="400" height="300" filter="url(#vt-grain)" opacity=".05"/>
  <rect width="400" height="300" fill="url(#vt-vig)"/>
</svg>
