<svg viewBox="0 0 400 300" xmlns="http://www.w3.org/2000/svg" role="img" aria-label="Whale-Class Cluster — a whale-shaped mechanical compute cluster Launch weapon gaining charge cells as little token-fish swim into it">
  <defs>
    <radialGradient id="wc-bg" cx="48%" cy="26%" r="92%">
      <stop offset="0%" stop-color="#0F4044"/><stop offset="55%" stop-color="#0A2A2E"/><stop offset="100%" stop-color="#05181A"/>
    </radialGradient>
    <linearGradient id="wc-whale" x1="0" y1="0" x2="0" y2="1">
      <stop offset="0%" stop-color="#2E8C8C"/><stop offset="100%" stop-color="#0A3E42"/>
    </linearGradient>
    <linearGradient id="wc-belly" x1="0" y1="0" x2="0" y2="1">
      <stop offset="0%" stop-color="#6FD4CC"/><stop offset="100%" stop-color="#1E6E70"/>
    </linearGradient>
    <radialGradient id="wc-core" cx="50%" cy="45%" r="60%">
      <stop offset="0%" stop-color="#FFE8C8"/><stop offset="50%" stop-color="#FF8A3D"/><stop offset="100%" stop-color="#B5521A"/>
    </radialGradient>
    <radialGradient id="wc-glow" cx="50%" cy="50%" r="50%">
      <stop offset="0%" stop-color="#39C9C0" stop-opacity=".4"/><stop offset="100%" stop-color="#39C9C0" stop-opacity="0"/>
    </radialGradient>
    <filter id="wc-soft" x="-40%" y="-40%" width="180%" height="180%"><feGaussianBlur stdDeviation="8"/></filter>
    <filter id="wc-grain"><feTurbulence type="fractalNoise" baseFrequency="0.9" numOctaves="2" stitchTiles="stitch"/><feColorMatrix type="matrix" values="0 0 0 0 0  0 0 0 0 0  0 0 0 0 0  0 0 0 .5 0"/></filter>
    <radialGradient id="wc-vig" cx="50%" cy="46%" r="72%"><stop offset="58%" stop-color="#000" stop-opacity="0"/><stop offset="100%" stop-color="#000" stop-opacity=".55"/></radialGradient>
  </defs>

  <rect width="400" height="300" fill="url(#wc-bg)"/>
  <g filter="url(#wc-soft)" opacity=".6"><ellipse cx="200" cy="140" rx="170" ry="100" fill="#0E5E63" opacity=".5"/><ellipse cx="150" cy="110" rx="120" ry="70" fill="#FF8A3D" opacity=".1"/></g>
  <g opacity=".7"><rect x="0" y="240" width="400" height="60" fill="#062024"/></g>
  <ellipse cx="200" cy="254" rx="150" ry="14" fill="#0A3438" opacity=".7"/>
  <circle cx="190" cy="150" r="110" fill="url(#wc-glow)"/>

  <!-- the mechanical whale-cluster -->
  <g transform="translate(190 150)">
    <!-- tail -->
    <path d="M-118 0 L-150 -28 L-138 0 L-150 28 Z" fill="url(#wc-whale)"/>
    <!-- body -->
    <path d="M-122 0 q20 -64 92 -64 q72 0 96 50 q4 30 -16 44 q-80 30 -154 6 q-20 -16 -18 -36 z" fill="url(#wc-whale)"/>
    <!-- belly plating -->
    <path d="M-100 18 q70 36 150 8 q-6 18 -30 26 q-70 16 -110 -10 q-12 -10 -10 -24 z" fill="url(#wc-belly)" opacity=".75"/>
    <g stroke="#0A3E42" stroke-width="2" opacity=".5"><path d="M-70 28 q60 24 130 4 M-60 40 q56 22 116 2"/></g>
    <!-- mech panels on back -->
    <g fill="#0A3E42" opacity=".6"><rect x="-30" y="-52" width="22" height="16" rx="4"/><rect x="2" y="-58" width="22" height="16" rx="4"/><rect x="34" y="-50" width="22" height="16" rx="4"/></g>
    <!-- eye -->
    <circle cx="58" cy="-18" r="8" fill="#06181A"/><circle cx="58" cy="-18" r="4" fill="#6FD4CC"/>
    <!-- the launch core (a glowing amber barrel/blowhole cannon) -->
    <g transform="translate(20 -64)">
      <rect x="-10" y="-26" width="20" height="34" rx="6" fill="#0A3E42" stroke="#FF8A3D" stroke-width="1.4"/>
      <circle cx="0" cy="-26" r="11" fill="url(#wc-core)"/>
      <circle cx="0" cy="-26" r="5" fill="#FFE8C8"/>
    </g>
    <!-- 2-attack tag -->
    <text x="-20" y="6" font-family="'Space Grotesk',sans-serif" font-weight="800" font-size="20" fill="#06181A">2</text>
    <!-- rim light -->
    <path d="M-122 0 q20 -64 92 -64 q72 0 96 50" fill="none" stroke="#FFF6E0" stroke-width="1.6" opacity=".5"/>
  </g>

  <!-- little fish swimming in, becoming charges -->
  <g>
    <g transform="translate(330 96) rotate(150)"><path d="M0 0 q8 -6 16 0 q-8 6 -16 0 Z" fill="#FFB36A"/><path d="M16 0 l7 -5 l0 10 z" fill="#FF8A3D"/></g>
    <g transform="translate(348 130) rotate(160) scale(.9)"><path d="M0 0 q8 -6 16 0 q-8 6 -16 0 Z" fill="#FFB36A"/><path d="M16 0 l7 -5 l0 10 z" fill="#FF8A3D"/></g>
    <g stroke="#FFD9A8" stroke-width="1.4" stroke-dasharray="3 4" opacity=".55" fill="none"><path d="M330 100 q-40 0 -70 30"/></g>
  </g>
  <!-- charge cells (3, growing to 5) -->
  <g transform="translate(300 244)">
    <circle cx="0" r="6" fill="#FF8A3D"/><circle cx="15" r="6" fill="#FF8A3D"/><circle cx="30" r="6" fill="#FF8A3D"/>
    <circle cx="45" r="6" fill="none" stroke="#FF8A3D" stroke-width="1.4" stroke-dasharray="2 2"/><circle cx="60" r="6" fill="none" stroke="#FF8A3D" stroke-width="1.4" stroke-dasharray="2 2"/>
    <text x="30" y="22" font-family="JetBrains Mono,monospace" font-size="8" fill="#FFB36A" text-anchor="middle">charges →5</text>
  </g>

  <rect width="400" height="300" filter="url(#wc-grain)" opacity=".05"/>
  <rect width="400" height="300" fill="url(#wc-vig)"/>
</svg>
